<?xml version="1.0" standalone="no"?>
<!DOCTYPE svg PUBLIC "-//W3C//DTD SVG 1.1//EN" "http://www.w3.org/Graphics/SVG/1.1/DTD/svg11.dtd" >
<svg xmlns="http://www.w3.org/2000/svg">
<metadata>Generated by IcoMoon</metadata>
<defs>
<font id="icomoon" horiz-adv-x="1024">
<font-face units-per-em="1024" ascent="960" descent="-64" />
<missing-glyph horiz-adv-x="1024" />
<glyph unicode="&#x20;" horiz-adv-x="512" d="" />
<glyph unicode="&#xe900;" glyph-name="pv-icons-a" d="M518.571 155.307c-19.999 0.016-38.1 8.134-51.199 21.247l-446.124 446.038c-15.547 13.397-25.33 33.111-25.33 55.111 0 40.106 32.512 72.619 72.619 72.619 22 0 41.714-9.783 55.031-25.235l0.079-0.094 394.581-394.667 394.752 395.008c13.397 15.547 33.111 25.33 55.111 25.33 40.106 0 72.619-32.512 72.619-72.619 0-22-9.783-41.714-25.235-55.031l-0.094-0.079-445.44-446.379c-13.113-13.128-31.237-21.248-51.257-21.248-0.040 0-0.080 0-0.12 0h0.006z" />
<glyph unicode="&#xe901;" d="M832.853 450.512c0-173.432-143.651-314.027-320.853-314.027s-320.853 140.595-320.853 314.027c0 173.432 143.651 314.027 320.853 314.027s320.853-140.595 320.853-314.027z" />
<glyph unicode="&#xe902;" d="M512 891.733c-246.389-0.178-446.057-199.955-446.057-446.368 0-52.558 9.084-102.994 25.766-149.824l-0.969 3.119c4.451-12.561 25.709-59.283 30.938-68.608 39.323-69.388 94.056-125.869 159.802-166.121l1.99-1.133c65.233-39.502 144.053-62.878 228.332-62.878 246.326 0 446.013 199.687 446.013 446.013 0 183.552-110.878 341.206-269.309 409.64l-2.891 1.112c-50.977 22.158-110.357 35.049-172.748 35.049-0.305 0-0.61 0-0.915-0.001h0.047zM512 905.387c0.046 0 0.101 0 0.156 0 253.89 0 459.708-205.818 459.708-459.708s-205.818-459.708-459.708-459.708c-172.308 0-322.475 94.8-401.189 235.088l-1.194 2.316c-5.871 10.458-27.307 57.904-31.908 70.738-16.207 45.065-25.576 97.064-25.576 151.252 0 253.954 205.782 459.845 459.694 460.022h0.017z" />
<glyph unicode="&#xe903;" d="M394.063 242.64h48.729v-16.247h-48.729z" />
<glyph unicode="&#xe904;" d="M767.413 461.926h0.246v32.495c-0.054 22.395-18.206 40.533-40.602 40.564h-0.508c0.205 2.731 0.505 5.379 0.505 8.124 0 0.063 0 0.137 0 0.211 0 58.22-47.197 105.417-105.417 105.417-24.689 0-47.395-8.487-65.361-22.703l0.221 0.168v30.652c-0.031 22.413-18.192 40.574-40.602 40.605h-194.932c-22.413-0.031-40.574-18.192-40.605-40.602v-422.342c0.031-22.413 18.192-40.574 40.602-40.605h194.932c22.413 0.031 40.574 18.192 40.605 40.602v8.127h186.805c22.413 0.031 40.574 18.192 40.605 40.602v146.203c-0.041 13.283-6.475 25.054-16.384 32.404l-0.109 0.077zM727.054 518.779c13.437-0.031 24.321-10.919 24.344-24.355v-25.192c-2.439 0.521-5.241 0.819-8.112 0.819-0.004 0-0.008 0-0.012 0h-45.847c12.704 13.14 22.027 29.627 26.516 48.009l0.149 0.72zM621.472 632.484c0.055 0 0.121 0 0.187 0 49.277 0 89.225-39.947 89.225-89.225 0-30.213-15.017-56.919-37.995-73.061l-0.285-0.189h-43.008v17.435c14.129 3.701 24.384 16.354 24.384 31.403 0 17.901-14.512 32.413-32.413 32.413-0.033 0-0.067 0-0.1 0h0.005c-8.973 0-16.247 7.274-16.247 16.247s7.274 16.247 16.247 16.247c8.973 0 16.247-7.274 16.247-16.247h16.247c-0.046 15.012-10.278 27.622-24.145 31.284l-0.226 0.051v17.394h-16.247v-17.394c-14.129-3.701-24.384-16.354-24.384-31.403 0-17.901 14.512-32.413 32.413-32.413 0.033 0 0.067 0 0.1 0h-0.005c8.973 0 16.247-7.274 16.247-16.247s-7.274-16.247-16.247-16.247c-8.973 0-16.247 7.274-16.247 16.247h-16.302c0.046-15.012 10.278-27.622 24.145-31.284l0.226-0.051v-17.394h-43.008c-23.262 16.331-38.279 43.037-38.279 73.25 0 49.277 39.947 89.225 89.225 89.225 0.066 0 0.131 0 0.197 0h-0.010zM459.858 275.135h-163.253v357.349h243.644v-21.968c-15.154-18.092-24.358-41.617-24.358-67.292 0-0.016 0-0.033 0-0.049v0.003c0-2.731 0.287-5.461 0.505-8.124h-16.753c-22.413-0.031-40.574-18.192-40.605-40.602v-211.193c0-0.004 0-0.008 0-0.013 0-2.871 0.298-5.673 0.866-8.375l-0.046 0.264zM499.644 518.793h19.115c1.529-6.315 3.354-11.732 5.586-16.932l-0.261 0.685h-24.439v-16.247h32.481v0.901c4.068-6.474 8.482-12.099 13.412-17.223l-0.032 0.034h-45.862c-13.209 0.323-23.794 11.107-23.794 24.364s10.585 24.042 23.765 24.364l0.030 0.001zM320.963 681.213h194.929c13.454-0.016 24.356-10.918 24.371-24.37v-8.125h-243.657v8.137c0.023 13.443 10.915 24.334 24.355 24.358h0.002zM540.249 234.517c-0.016-13.454-10.918-24.356-24.37-24.371h-194.916c-13.448 0.023-24.342 10.922-24.358 24.37v24.372h170.557v0.3c7.427-10.019 19.199-16.452 32.475-16.493h40.612zM743.287 258.888h-243.644c-13.454 0.016-24.356 10.918-24.371 24.37v178.696c6.692-5.107 15.172-8.185 24.369-8.192h243.659c13.454-0.016 24.356-10.918 24.371-24.37v-24.372h-97.471c-26.912 0-48.729-21.817-48.729-48.729s21.817-48.729 48.729-48.729v0h97.457v-24.371c-0.054-13.419-10.934-24.28-24.355-24.303h-0.002zM767.659 388.895v-64.976h-97.457c-17.943 0-32.488 14.545-32.488 32.488s14.545 32.488 32.488 32.488v0z" />
<glyph unicode="&#xe905;" d="M653.954 364.469h16.247v-16.247h-16.247z" />
<glyph unicode="&#xe906;" d="M678.325 551.274h16.247v-16.247h-16.247z" />
<glyph unicode="&#xe907;" d="M548.372 551.274h16.247v-16.247h-16.247z" />
<glyph unicode="&#xe908;" d="M751.411 616.236h16.247v-16.247h-16.247z" />
<glyph unicode="&#xe909;" d="M751.411 583.755h16.247v-16.247h-16.247z" />
<glyph unicode="&#xe90a;" d="M767.659 600.003h16.247v-16.247h-16.247z" />
<glyph unicode="&#xe90b;" d="M735.177 600.003h16.247v-16.247h-16.247z" />
<glyph unicode="&#xe90c;" d="M475.273 600.003h16.247v-16.247h-16.247z" />
<glyph unicode="&#xe90d;" d="M475.273 567.508h16.247v-16.247h-16.247z" />
<glyph unicode="&#xe90e;" d="M491.52 583.755h16.247v-16.247h-16.247z" />
<glyph unicode="&#xe90f;" d="M459.039 583.755h16.247v-16.247h-16.247z" />
<glyph unicode="&#xe910;" d="M686.449 697.46h16.247v-16.247h-16.247z" />
<glyph unicode="&#xe911;" d="M686.449 664.979h16.247v-16.247h-16.247z" />
<glyph unicode="&#xe912;" d="M702.682 681.213h16.247v-16.247h-16.247z" />
<glyph unicode="&#xe913;" d="M670.201 681.213h16.247v-16.247h-16.247z" />
<glyph unicode="&#xe914;" d="M109.227 382.246c0-30.162-24.451-54.613-54.613-54.613s-54.613 24.451-54.613 54.613c0 30.162 24.451 54.613 54.613 54.613s54.613-24.451 54.613-54.613z" />
<glyph unicode="&#xe915;" d="M1024 518.779c0-37.703-33.62-68.267-75.093-68.267s-75.093 30.564-75.093 68.267c0 37.703 33.62 68.267 75.093 68.267s75.093-30.564 75.093-68.267z" />
<glyph unicode="&#xe916;" d="M273.067 81.872c0-22.622-18.338-40.96-40.96-40.96s-40.96 18.338-40.96 40.96c0 22.622 18.338 40.96 40.96 40.96s40.96-18.338 40.96-40.96z" />
<glyph unicode="&#xe917;" d="M368.64 34.086c0-18.851-15.282-34.133-34.133-34.133s-34.133 15.282-34.133 34.133c0 18.851 15.282 34.133 34.133 34.133s34.133-15.282 34.133-34.133z" />
<glyph unicode="&#xe918;" d="M191.147 191.099c0-30.162-24.451-54.613-54.613-54.613s-54.613 24.451-54.613 54.613c0 30.162 24.451 54.613 54.613 54.613s54.613-24.451 54.613-54.613z" />
<glyph unicode="&#xe919;" d="M955.733 750.886c0-52.784-42.79-95.573-95.573-95.573s-95.573 42.79-95.573 95.573c0 52.784 42.79 95.573 95.573 95.573s95.573-42.79 95.573-95.573z" />
<glyph unicode="&#xe91a;" d="M832.853 450.512c0-173.432-143.651-314.027-320.853-314.027s-320.853 140.595-320.853 314.027c0 173.432 143.651 314.027 320.853 314.027s320.853-140.595 320.853-314.027z" />
<glyph unicode="&#xe91b;" d="M512.014 891.733c-246.389-0.178-446.057-199.955-446.057-446.368 0-52.558 9.084-102.994 25.766-149.824l-0.969 3.119c4.451-12.561 25.709-59.283 30.938-68.608 39.323-69.388 94.056-125.869 159.802-166.121l1.99-1.133c65.233-39.502 144.053-62.878 228.332-62.878 246.326 0 446.013 199.687 446.013 446.013 0 183.552-110.878 341.206-269.309 409.64l-2.891 1.112c-50.977 22.158-110.357 35.049-172.748 35.049-0.305 0-0.61 0-0.915-0.001h0.047zM512.014 905.387c0.046 0 0.101 0 0.156 0 253.89 0 459.708-205.818 459.708-459.708s-205.818-459.708-459.708-459.708c-172.308 0-322.475 94.8-401.189 235.088l-1.194 2.316c-5.871 10.458-27.307 57.904-31.908 70.738-16.207 45.065-25.576 97.064-25.576 151.252 0 253.954 205.782 459.845 459.694 460.022h0.017z" />
<glyph unicode="&#xe91c;" d="M109.227 382.246c0-30.162-24.451-54.613-54.613-54.613s-54.613 24.451-54.613 54.613c0 30.162 24.451 54.613 54.613 54.613s54.613-24.451 54.613-54.613z" />
<glyph unicode="&#xe91d;" d="M1024 518.779c0-37.703-33.62-68.267-75.093-68.267s-75.093 30.564-75.093 68.267c0 37.703 33.62 68.267 75.093 68.267s75.093-30.564 75.093-68.267z" />
<glyph unicode="&#xe91e;" d="M273.067 81.872c0-22.622-18.338-40.96-40.96-40.96s-40.96 18.338-40.96 40.96c0 22.622 18.338 40.96 40.96 40.96s40.96-18.338 40.96-40.96z" />
<glyph unicode="&#xe91f;" d="M368.64 34.086c0-18.851-15.282-34.133-34.133-34.133s-34.133 15.282-34.133 34.133c0 18.851 15.282 34.133 34.133 34.133s34.133-15.282 34.133-34.133z" />
<glyph unicode="&#xe920;" d="M191.147 191.099c0-30.162-24.451-54.613-54.613-54.613s-54.613 24.451-54.613 54.613c0 30.162 24.451 54.613 54.613 54.613s54.613-24.451 54.613-54.613z" />
<glyph unicode="&#xe921;" d="M955.733 750.886c0-52.784-42.79-95.573-95.573-95.573s-95.573 42.79-95.573 95.573c0 52.784 42.79 95.573 95.573 95.573s95.573-42.79 95.573-95.573z" />
<glyph unicode="&#xe922;" d="M723.64 348.112c0-26.392-21.395-47.787-47.787-47.787s-47.787 21.395-47.787 47.787c0 26.392 21.395 47.787 47.787 47.787s47.787-21.395 47.787-47.787z" />
<glyph unicode="&#xe923;" d="M495.712 353.178v63.42c0 13.136-10.649 23.784-23.784 23.784s-23.784-10.649-23.784-23.784v-63.42c-9.629-7.302-15.784-18.75-15.784-31.635 0-18.508 12.699-34.051 29.86-38.389l0.274-0.059c2.809-0.735 6.050-1.194 9.386-1.269l0.048-0.001c0.041 0 0.089 0 0.137 0 21.868 0 39.595 17.727 39.595 39.595 0 12.957-6.224 24.461-15.846 31.684l-0.102 0.073zM486.673 303.002c-4.126-3.537-9.53-5.689-15.435-5.689-13.136 0-23.784 10.649-23.784 23.784 0 9.035 5.037 16.893 12.457 20.919l0.125 0.062c2.384 1.398 3.96 3.948 3.96 6.866 0 0.010 0 0.020 0 0.031v-0.002 67.625c0.181 4.237 3.66 7.604 7.926 7.604s7.744-3.366 7.925-7.587l0.001-0.016v-67.789c0-0.009 0-0.019 0-0.029 0-2.918 1.575-5.468 3.922-6.846l0.037-0.020c7.090-4.205 11.769-11.819 11.769-20.526 0-7.488-3.461-14.168-8.87-18.528l-0.046-0.036z" />
<glyph unicode="&#xe924;" d="M774.922 416.597l-26.242 5.789c-27.072 6.362-49.431 23.032-63.156 45.543l-0.25 0.441c-1.407 2.346-3.936 3.892-6.827 3.892s-5.42-1.546-6.807-3.857l-0.020-0.036c-9.941-16.237-23.925-29.126-40.578-37.477l-0.574-0.261v33.533c0 0.001 0 0.002 0 0.003 0 16.149-9.668 30.040-23.532 36.201l-0.252 0.1v74.684c0 74.433-60.34 134.772-134.772 134.772s-134.772-60.34-134.772-134.772v0-74.684c-14.109-6.264-23.77-20.151-23.77-36.295 0-0.003 0-0.006 0-0.010v0-23.784h-7.919c-4.381 0-7.933-3.552-7.933-7.933v0-142.691c0-4.381 3.552-7.933 7.933-7.933v0h7.933v-23.825c0-21.868 17.727-39.595 39.595-39.595v0h237.868c21.868 0 39.595 17.727 39.595 39.595v0 1.024c10.911-12.726 22.862-23.997 35.9-33.91l0.568-0.414 6.349-4.751c1.313-0.999 2.975-1.601 4.779-1.601s3.466 0.602 4.798 1.615l-0.019-0.014 6.349 4.751c55.948 42.506 91.758 109.013 91.955 183.892v0.032c0.002 0.058 0.002 0.126 0.002 0.194 0 3.762-2.619 6.913-6.134 7.728l-0.054 0.010zM353.021 575.154c0.72 65.128 53.684 117.646 118.914 117.646s118.193-52.519 118.913-117.578l0.001-0.068v-71.393h-31.717v71.393c0 48.161-39.042 87.204-87.204 87.204s-87.204-39.042-87.204-87.204v0-71.393h-31.703zM543.28 503.76h-142.705v71.393c0 39.407 31.946 71.352 71.352 71.352s71.352-31.946 71.352-71.352v0zM392.656 424.571v-31.717h-79.285v31.717zM313.385 297.731v31.662h79.271v-31.717zM392.656 345.245h-79.285v31.717h79.285zM614.632 258c0-13.136-10.649-23.784-23.784-23.784v0h-237.827c-13.136 0-23.784 10.649-23.784 23.784v0 23.825h71.339c4.381 0 7.933 3.552 7.933 7.933v0 142.691c0 4.381-3.552 7.933-7.933 7.933v0h-71.339v23.784c0 13.136 10.649 23.784 23.784 23.784v0h237.827c13.136 0 23.784-10.649 23.784-23.784v-39.595c-2.376-0.71-4.751-1.365-7.209-1.98l-26.242-5.939c-3.568-0.825-6.187-3.976-6.187-7.738 0-0.068 0.001-0.136 0.003-0.204v0.010c0.124-48.061 14.906-92.645 40.108-129.546l-0.513 0.795zM679.636 237.384l-1.584-1.188-1.584 1.188c-50.475 38.309-83.351 97.54-85.611 164.535l-0.010 0.357 19.893 4.437c27.632 6.285 50.936 21.74 67.105 42.931l0.206 0.282c16.371-21.416 39.642-36.829 66.45-42.954l0.779-0.15 19.975-4.437c-2.269-67.351-35.145-126.583-85.087-164.503l-0.533-0.388z" />
<glyph unicode="&#xe925;" d="M724.746 397.169l-14.118 7.141-5.393-10.704c-8.18 4.914-18.052 7.821-28.602 7.821-31.044 0-56.211-25.166-56.211-56.211s25.166-56.211 56.211-56.211c31.044 0 56.211 25.166 56.211 56.211 0 14.861-5.767 28.375-15.185 38.426l0.029-0.031zM717.687 345.286c0.001-0.12 0.002-0.261 0.002-0.403 0-22.109-17.923-40.032-40.032-40.032s-40.032 17.923-40.032 40.032c0 22.109 17.923 40.032 40.032 40.032 7.547 0 14.606-2.088 20.631-5.719l-0.18 0.101-21.408-42.844-15.852 21.49-12.684-9.557 23.784-31.717c1.463-1.932 3.758-3.168 6.342-3.168 0.002 0 0.005 0 0.007 0h0.71c2.788 0.272 5.13 1.952 6.328 4.31l0.021 0.045 25.122 50.272c4.509-6.28 7.21-14.122 7.21-22.595 0-0.111 0-0.222-0.001-0.333v0.017z" />
<glyph unicode="&#xe926;" d="M832.853 450.512c0-173.432-143.651-314.027-320.853-314.027s-320.853 140.595-320.853 314.027c0 173.432 143.651 314.027 320.853 314.027s320.853-140.595 320.853-314.027z" />
<glyph unicode="&#xe927;" d="M512.014 891.733c-246.389-0.178-446.057-199.955-446.057-446.368 0-52.558 9.084-102.994 25.766-149.824l-0.969 3.119c4.451-12.561 25.709-59.283 30.938-68.608 39.323-69.388 94.056-125.869 159.802-166.121l1.99-1.133c65.233-39.502 144.053-62.878 228.332-62.878 246.326 0 446.013 199.687 446.013 446.013 0 183.552-110.878 341.206-269.309 409.64l-2.891 1.112c-50.977 22.158-110.357 35.049-172.748 35.049-0.305 0-0.61 0-0.915-0.001h0.047zM512.014 905.387c0.046 0 0.101 0 0.156 0 253.89 0 459.708-205.818 459.708-459.708s-205.818-459.708-459.708-459.708c-172.308 0-322.475 94.8-401.189 235.088l-1.194 2.316c-5.871 10.458-27.307 57.904-31.908 70.738-16.207 45.065-25.576 97.064-25.576 151.252 0 253.954 205.782 459.845 459.694 460.022h0.017z" />
<glyph unicode="&#xe928;" d="M109.227 382.246c0-30.162-24.451-54.613-54.613-54.613s-54.613 24.451-54.613 54.613c0 30.162 24.451 54.613 54.613 54.613s54.613-24.451 54.613-54.613z" />
<glyph unicode="&#xe929;" d="M1024 518.779c0-37.703-33.62-68.267-75.093-68.267s-75.093 30.564-75.093 68.267c0 37.703 33.62 68.267 75.093 68.267s75.093-30.564 75.093-68.267z" />
<glyph unicode="&#xe92a;" d="M273.067 81.872c0-22.622-18.338-40.96-40.96-40.96s-40.96 18.338-40.96 40.96c0 22.622 18.338 40.96 40.96 40.96s40.96-18.338 40.96-40.96z" />
<glyph unicode="&#xe92b;" d="M368.64 34.086c0-18.851-15.282-34.133-34.133-34.133s-34.133 15.282-34.133 34.133c0 18.851 15.282 34.133 34.133 34.133s34.133-15.282 34.133-34.133z" />
<glyph unicode="&#xe92c;" d="M191.147 191.099c0-30.162-24.451-54.613-54.613-54.613s-54.613 24.451-54.613 54.613c0 30.162 24.451 54.613 54.613 54.613s54.613-24.451 54.613-54.613z" />
<glyph unicode="&#xe92d;" d="M955.733 750.886c0-52.784-42.79-95.573-95.573-95.573s-95.573 42.79-95.573 95.573c0 52.784 42.79 95.573 95.573 95.573s95.573-42.79 95.573-95.573z" />
<glyph unicode="&#xe92e;" d="M752.79 490.639h-11.974v59.283c-0.039 28.819-23.391 52.172-52.207 52.21h-26.396l-78.493 78.493c-1.234 1.227-2.935 1.985-4.813 1.985s-3.579-0.758-4.813-1.985v0l-33.328-33.328-31.007 30.993c-1.234 1.227-2.935 1.985-4.813 1.985s-3.579-0.758-4.813-1.985v0l-76.158-76.172h-53.248c-28.822-0.031-52.179-23.388-52.21-52.207v-139.090h13.653v139.1c0.031 21.307 17.303 38.569 38.61 38.584h58.615l0.109-0.109 0.109 0.109h258.99c21.308-0.023 38.575-17.29 38.598-38.596v-59.271h-75.749c-30.74-0.494-55.47-25.529-55.47-56.34s24.73-55.847 55.424-56.34l0.046-0.001h75.735v-59.228c-0.023-21.308-17.29-38.575-38.596-38.598h-226.497v-13.653h226.509c28.819 0.039 52.172 23.391 52.21 52.207v59.314h11.974c3.77 0 6.827 3.056 6.827 6.827v0 98.987c0 3.77-3.056 6.827-6.827 6.827v0zM578.901 666.18l64.048-64.048h-57.016l-35.499 35.499zM443.228 602.133l61.713 61.713 61.713-61.713zM745.977 391.625h-94.522c-23.594 0-42.721 19.127-42.721 42.721s19.127 42.721 42.721 42.721h94.522z" />
<glyph unicode="&#xe92f;" d="M627.93 434.347c0-14.018 11.364-25.382 25.382-25.382s25.382 11.364 25.382 25.382c0 14.018-11.364 25.382-25.382 25.382v0c-14.018 0-25.382-11.364-25.382-25.382v0zM653.312 446.116c6.5 0 11.769-5.269 11.769-11.769s-5.269-11.769-11.769-11.769c-6.5 0-11.769 5.269-11.769 11.769v0c0 0.004 0 0.009 0 0.014 0 6.492 5.263 11.756 11.756 11.756 0.005 0 0.010 0 0.014 0h-0.001z" />
<glyph unicode="&#xe930;" d="M478.208 389.823l-0.669 0.287c-38.213 16.632-71.133 36.031-101.324 58.85l1.232-0.892c-1.127 0.852-2.551 1.365-4.096 1.365s-2.969-0.513-4.113-1.378l0.017 0.012c-28.955-21.926-61.871-41.325-96.939-56.728l-3.14-1.23-0.669-0.287c-2.43-1.080-4.095-3.472-4.096-6.253v0-59.255c0.489-40.519 21.228-76.090 52.549-97.12l0.426-0.269c14.996-11.061 32.337-20.144 50.987-26.366l1.319-0.381c0.557-0.173 1.198-0.273 1.863-0.273 0.017 0 0.034 0 0.051 0h-0.003c0.657 0.002 1.291 0.097 1.891 0.271l-0.048-0.012c20.606 6.579 38.528 15.659 54.644 27.114l-0.604-0.408c32.621 20.81 54.123 56.539 54.844 97.338l0.001 0.106v59.255c-0.006 2.787-1.682 5.181-4.080 6.236l-0.044 0.017zM468.651 324.287c0.001-0.118 0.001-0.257 0.001-0.397 0-26.309-10.555-50.152-27.661-67.527l0.012 0.012c-0.14 3.663-3.143 6.579-6.827 6.579-3.773 0-6.831-3.058-6.831-6.831 0-0.089 0.002-0.177 0.005-0.265v0.013-6.24c0.003-1.693 0.623-3.242 1.646-4.433l-0.008 0.009q-4.342-3.604-9.161-7.018c-13.891-9.844-29.881-18.092-46.98-23.949l-1.326-0.395c-17.762 6.26-33.156 14.482-47.033 24.654l0.502-0.351q-4.246 3.127-8.124 6.403c1.404 1.251 2.286 3.061 2.294 5.078v6.241c0 3.77-3.056 6.827-6.827 6.827s-6.827-3.056-6.827-6.827v0-0.546c-16.993 17.644-27.46 41.676-27.46 68.153 0 0.289 0.001 0.579 0.004 0.868v-0.044 54.791c36.417 16.158 67.738 34.543 96.679 55.96l-1.365-0.965c27.585-20.468 58.914-38.866 92.155-53.761l3.186-1.276z" />
<glyph unicode="&#xe931;" d="M373.378 262.711c-3.77 0-6.827-3.056-6.827-6.827v0-6.24c0-3.77 3.056-6.827 6.827-6.827s6.827 3.056 6.827 6.827v0 6.24c0 3.77-3.056 6.827-6.827 6.827v0z" />
<glyph unicode="&#xe932;" d="M393.667 262.711c-3.77 0-6.827-3.056-6.827-6.827v0-6.24c0-3.77 3.056-6.827 6.827-6.827s6.827 3.056 6.827 6.827v0 6.24c0 3.77-3.056 6.827-6.827 6.827v0z" />
<glyph unicode="&#xe933;" d="M407.156 255.898v-6.24c0-3.77 3.056-6.827 6.827-6.827s6.827 3.056 6.827 6.827v0 6.24c0 3.77-3.056 6.827-6.827 6.827s-6.827-3.056-6.827-6.827v0z" />
<glyph unicode="&#xe934;" d="M353.062 262.711c-3.77 0-6.827-3.056-6.827-6.827v0-6.24c0-3.77 3.056-6.827 6.827-6.827s6.827 3.056 6.827 6.827v0 6.24c0 3.77-3.056 6.827-6.827 6.827v0z" />
<glyph unicode="&#xe935;" d="M332.745 262.711c-3.77 0-6.827-3.056-6.827-6.827v0-6.24c0-3.77 3.056-6.827 6.827-6.827s6.827 3.056 6.827 6.827v0 6.24c0 3.77-3.056 6.827-6.827 6.827v0z" />
<glyph unicode="&#xe936;" d="M346.276 332.288c-1.186 1.020-2.741 1.642-4.44 1.642-3.77 0-6.827-3.056-6.827-6.827 0-1.7 0.621-3.255 1.649-4.449l-0.008 0.009 23.129-23.129c1.234-1.227 2.935-1.985 4.813-1.985s3.579 0.758 4.813 1.985v0l40.66 40.66c1.049 1.194 1.688 2.77 1.688 4.495 0 3.77-3.056 6.827-6.827 6.827-1.722 0-3.294-0.637-4.495-1.689l0.008 0.007-35.854-35.854z" />
<glyph unicode="&#xe937;" d="M832.853 450.512c0-173.432-143.651-314.027-320.853-314.027s-320.853 140.595-320.853 314.027c0 173.432 143.651 314.027 320.853 314.027s320.853-140.595 320.853-314.027z" />
<glyph unicode="&#xe938;" d="M512.014 891.733c-246.389-0.178-446.057-199.955-446.057-446.368 0-52.558 9.084-102.994 25.766-149.824l-0.969 3.119c4.451-12.561 25.709-59.283 30.938-68.608 39.323-69.388 94.056-125.869 159.802-166.121l1.99-1.133c65.233-39.502 144.053-62.878 228.332-62.878 246.326 0 446.013 199.687 446.013 446.013 0 183.552-110.878 341.206-269.309 409.64l-2.891 1.112c-50.977 22.158-110.357 35.049-172.748 35.049-0.305 0-0.61 0-0.915-0.001h0.047zM512.014 905.387c0.046 0 0.101 0 0.156 0 253.89 0 459.708-205.818 459.708-459.708s-205.818-459.708-459.708-459.708c-172.308 0-322.475 94.8-401.189 235.088l-1.194 2.316c-5.871 10.458-27.307 57.904-31.908 70.738-16.207 45.065-25.576 97.064-25.576 151.252 0 253.954 205.782 459.845 459.694 460.022h0.017z" />
<glyph unicode="&#xe939;" d="M109.227 382.246c0-30.162-24.451-54.613-54.613-54.613s-54.613 24.451-54.613 54.613c0 30.162 24.451 54.613 54.613 54.613s54.613-24.451 54.613-54.613z" />
<glyph unicode="&#xe93a;" d="M1024 518.779c0-37.703-33.62-68.267-75.093-68.267s-75.093 30.564-75.093 68.267c0 37.703 33.62 68.267 75.093 68.267s75.093-30.564 75.093-68.267z" />
<glyph unicode="&#xe93b;" d="M273.067 81.872c0-22.622-18.338-40.96-40.96-40.96s-40.96 18.338-40.96 40.96c0 22.622 18.338 40.96 40.96 40.96s40.96-18.338 40.96-40.96z" />
<glyph unicode="&#xe93c;" d="M368.64 34.086c0-18.851-15.282-34.133-34.133-34.133s-34.133 15.282-34.133 34.133c0 18.851 15.282 34.133 34.133 34.133s34.133-15.282 34.133-34.133z" />
<glyph unicode="&#xe93d;" d="M191.147 191.099c0-30.162-24.451-54.613-54.613-54.613s-54.613 24.451-54.613 54.613c0 30.162 24.451 54.613 54.613 54.613s54.613-24.451 54.613-54.613z" />
<glyph unicode="&#xe93e;" d="M955.733 750.886c0-52.784-42.79-95.573-95.573-95.573s-95.573 42.79-95.573 95.573c0 52.784 42.79 95.573 95.573 95.573s95.573-42.79 95.573-95.573z" />
<glyph unicode="&#xe93f;" d="M538.023 264.813v72.636c-0.162 3.4-2.958 6.094-6.383 6.094s-6.221-2.695-6.382-6.080l-0.001-0.015v-29.123h-223.655v298.844h223.655v-50.831c0.162-3.4 2.958-6.094 6.383-6.094s6.221 2.695 6.382 6.080l0.001 0.015v70.287c-0.070 21.109-17.183 38.198-38.295 38.229h-172.595c-21.118-0.023-38.236-17.117-38.298-38.223v-361.819c0.062-21.112 17.18-38.206 38.295-38.229h172.594c21.115 0.031 38.228 17.12 38.298 38.223v0.007zM327.134 652.090h172.592c14.095-0.016 25.516-11.437 25.532-25.53v-6.624h-223.655v6.69c0.054 14.065 11.461 25.448 25.53 25.463h0.001zM301.602 264.813v30.747h223.655v-30.747c-0.016-14.095-11.437-25.516-25.53-25.532h-172.593c-14.095 0.016-25.516 11.437-25.532 25.53v0.002z" />
<glyph unicode="&#xe940;" d="M435.309 273.811h-43.691c-0.088 0.004-0.191 0.007-0.295 0.007-3.529 0-6.39-2.861-6.39-6.39s2.861-6.39 6.39-6.39c0.104 0 0.207 0.002 0.31 0.007l-0.015-0.001h43.691c0.088-0.004 0.191-0.007 0.295-0.007 3.529 0 6.39 2.861 6.39 6.39s-2.861 6.39-6.39 6.39c-0.104 0-0.207-0.002-0.31-0.007l0.015 0.001z" />
<glyph unicode="&#xe941;" d="M581.646 569.173c1.128-1.022 2.633-1.648 4.283-1.648 3.529 0 6.39 2.861 6.39 6.39 0 1.65-0.626 3.155-1.653 4.289l-6.931 6.931h55.692c3.4 0.162 6.094 2.958 6.094 6.383s-2.695 6.221-6.080 6.382l-0.015 0.001h-55.692l6.936 6.936c1.022 1.128 1.648 2.633 1.648 4.283 0 3.529-2.861 6.39-6.39 6.39-1.65 0-3.155-0.626-4.289-1.653l-17.826-17.84c-1.156-1.154-1.871-2.75-1.871-4.512s0.715-3.358 1.871-4.512v0z" />
<glyph unicode="&#xe942;" d="M694.108 585.134h0.792c0.088-0.004 0.191-0.007 0.295-0.007 3.529 0 6.39 2.861 6.39 6.39s-2.861 6.39-6.39 6.39c-0.104 0-0.207-0.002-0.31-0.007l0.015 0.001h-0.792c-0.088 0.004-0.191 0.007-0.295 0.007-3.529 0-6.39-2.861-6.39-6.39s2.861-6.39 6.39-6.39c0.104 0 0.207 0.002 0.31 0.007l-0.015-0.001z" />
<glyph unicode="&#xe943;" d="M679.526 585.134h0.519c3.4 0.162 6.094 2.958 6.094 6.383s-2.695 6.221-6.080 6.382l-0.015 0.001h-0.519c-3.4-0.162-6.094-2.958-6.094-6.383s2.695-6.221 6.080-6.382l0.015-0.001z" />
<glyph unicode="&#xe944;" d="M659.115 585.134h0.246c0.088-0.004 0.191-0.007 0.295-0.007 3.529 0 6.39 2.861 6.39 6.39s-2.861 6.39-6.39 6.39c-0.104 0-0.207-0.002-0.31-0.007l0.015 0.001h-0.246c-3.4-0.162-6.094-2.958-6.094-6.383s2.695-6.221 6.080-6.382l0.015-0.001z" />
<glyph unicode="&#xe945;" d="M722.22 306.251h-0.792c-0.088 0.004-0.191 0.007-0.295 0.007-3.529 0-6.39-2.861-6.39-6.39s2.861-6.39 6.39-6.39c0.104 0 0.207 0.002 0.31 0.007l-0.015-0.001h0.792c0.088-0.004 0.191-0.007 0.295-0.007 3.529 0 6.39 2.861 6.39 6.39s-2.861 6.39-6.39 6.39c-0.104 0-0.207-0.002-0.31-0.007l0.015 0.001z" />
<glyph unicode="&#xe946;" d="M707.434 306.251h-0.519c-0.088 0.004-0.191 0.007-0.295 0.007-3.529 0-6.39-2.861-6.39-6.39s2.861-6.39 6.39-6.39c0.104 0 0.207 0.002 0.31 0.007l-0.015-0.001h0.519c0.088-0.004 0.191-0.007 0.295-0.007 3.529 0 6.39 2.861 6.39 6.39s-2.861 6.39-6.39 6.39c-0.104 0-0.207-0.002-0.31-0.007l0.015 0.001z" />
<glyph unicode="&#xe947;" d="M686.763 306.251h-0.246c-0.088 0.004-0.191 0.007-0.295 0.007-3.529 0-6.39-2.861-6.39-6.39s2.861-6.39 6.39-6.39c0.104 0 0.207 0.002 0.31 0.007l-0.015-0.001h0.246c3.4 0.162 6.094 2.958 6.094 6.383s-2.695 6.221-6.080 6.382l-0.015 0.001z" />
<glyph unicode="&#xe948;" d="M666.774 306.278h-91.368l6.936 6.936c1.296 1.174 2.107 2.863 2.107 4.742 0 3.529-2.861 6.39-6.39 6.39-1.878 0-3.568-0.811-4.737-2.101l-17.836-17.85c-1.156-1.154-1.871-2.75-1.871-4.512s0.715-3.358 1.871-4.512v0l17.831-17.845c1.174-1.296 2.863-2.107 4.742-2.107 3.529 0 6.39 2.861 6.39 6.39 0 1.878-0.811 3.568-2.101 4.737l-0.005 0.005-6.95 6.936h91.368c0.088-0.004 0.191-0.007 0.295-0.007 3.529 0 6.39 2.861 6.39 6.39s-2.861 6.39-6.39 6.39c-0.104 0-0.207-0.002-0.31-0.007l0.015 0.001z" />
<glyph unicode="&#xe949;" d="M685.684 489.793l17.831-17.845c1.174-1.296 2.863-2.107 4.742-2.107 3.529 0 6.39 2.861 6.39 6.39 0 1.878-0.811 3.568-2.101 4.737l-0.005 0.005-6.95 6.936h12.875c0.088-0.004 0.191-0.007 0.295-0.007 3.529 0 6.39 2.861 6.39 6.39s-2.861 6.39-6.39 6.39c-0.104 0-0.207-0.002-0.31-0.007l0.015 0.001h-12.875l6.95 6.936c1.296 1.174 2.107 2.863 2.107 4.742 0 3.529-2.861 6.39-6.39 6.39-1.878 0-3.568-0.811-4.737-2.101l-17.836-17.85c-1.148-1.153-1.858-2.743-1.858-4.499s0.71-3.346 1.858-4.499v0z" />
<glyph unicode="&#xe94a;" d="M769.72 500.688h-0.792c-3.4-0.162-6.094-2.958-6.094-6.383s2.695-6.221 6.080-6.382l0.015-0.001h0.792c3.4 0.162 6.094 2.958 6.094 6.383s-2.695 6.221-6.080 6.382l-0.015 0.001z" />
<glyph unicode="&#xe94b;" d="M754.865 500.688h-0.519c-3.4-0.162-6.094-2.958-6.094-6.383s2.695-6.221 6.080-6.382l0.015-0.001h0.519c3.4 0.162 6.094 2.958 6.094 6.383s-2.695 6.221-6.080 6.382l-0.015 0.001z" />
<glyph unicode="&#xe94c;" d="M734.181 500.688h-0.246c-0.088 0.004-0.191 0.007-0.295 0.007-3.529 0-6.39-2.861-6.39-6.39s2.861-6.39 6.39-6.39c0.104 0 0.207 0.002 0.31 0.007l-0.015-0.001h0.246c3.4 0.162 6.094 2.958 6.094 6.383s-2.695 6.221-6.080 6.382l-0.015 0.001z" />
<glyph unicode="&#xe94d;" d="M766.662 403.477h-0.519c-0.088 0.004-0.191 0.007-0.295 0.007-3.529 0-6.39-2.861-6.39-6.39s2.861-6.39 6.39-6.39c0.104 0 0.207 0.002 0.31 0.007l-0.015-0.001h0.519c3.4 0.162 6.094 2.958 6.094 6.383s-2.695 6.221-6.080 6.382l-0.015 0.001z" />
<glyph unicode="&#xe94e;" d="M746.059 403.477h-0.246c-0.088 0.004-0.191 0.007-0.295 0.007-3.529 0-6.39-2.861-6.39-6.39s2.861-6.39 6.39-6.39c0.104 0 0.207 0.002 0.31 0.007l-0.015-0.001h0.246c0.088-0.004 0.191-0.007 0.295-0.007 3.529 0 6.39 2.861 6.39 6.39s-2.861 6.39-6.39 6.39c-0.104 0-0.207-0.002-0.31-0.007l0.015 0.001z" />
<glyph unicode="&#xe94f;" d="M730.33 403.477h-39.13l6.936 6.936c1.296 1.174 2.107 2.863 2.107 4.742 0 3.529-2.861 6.39-6.39 6.39-1.878 0-3.568-0.811-4.737-2.101l-17.836-17.85c-1.156-1.154-1.871-2.75-1.871-4.512s0.715-3.358 1.871-4.512v0l17.831-17.845c1.155-1.155 2.75-1.869 4.512-1.869 3.524 0 6.382 2.857 6.382 6.382 0 1.762-0.714 3.358-1.869 4.512l-6.936 6.936h39.13c0.088-0.004 0.191-0.007 0.295-0.007 3.529 0 6.39 2.861 6.39 6.39s-2.861 6.39-6.39 6.39c-0.104 0-0.207-0.002-0.31-0.007l0.015 0.001z" />
<glyph unicode="&#xe950;" d="M555.882 360.578c47.596 0 86.18 38.584 86.18 86.18s-38.584 86.18-86.18 86.18c-47.596 0-86.18-38.584-86.18-86.18v0c0-47.596 38.584-86.18 86.18-86.18v0zM555.882 520.172c40.545 0 73.414-32.869 73.414-73.414s-32.869-73.414-73.414-73.414c-40.545 0-73.414 32.869-73.414 73.414v0c0 40.545 32.869 73.414 73.414 73.414v0z" />
<glyph unicode="&#xe951;" d="M463.203 519.98v-23.101l-0.724-1.365c-1.089-2.050-3.21-3.423-5.652-3.423-3.523 0-6.379 2.856-6.379 6.379 0 1.081 0.269 2.098 0.743 2.99l-0.017-0.034c3.533 6.685 7.261 12.418 11.437 17.785l-0.2-0.267z" />
<glyph unicode="&#xe952;" d="M463.203 396.663v-23.101l-0.792 1.010c-3.989 5.101-7.721 10.834-10.941 16.881l-0.309 0.636c-0.556 0.928-0.884 2.047-0.884 3.244 0 3.529 2.861 6.39 6.39 6.39 2.556 0 4.761-1.501 5.783-3.669l0.017-0.039c0.287-0.464 0.492-0.915 0.737-1.352z" />
<glyph unicode="&#xe953;" d="M531.948 403.272h7.25v-5.775c0.162-3.4 2.958-6.094 6.383-6.094s6.221 2.695 6.382 6.080l0.001 0.015v5.775h4.669v-5.775c0.162-3.4 2.958-6.094 6.383-6.094s6.221 2.695 6.382 6.080l0.001 0.015v6.827c9.818 3.134 16.807 12.17 16.821 22.84v1.75c0 0.003 0 0.007 0 0.011 0 6.92-2.948 13.151-7.657 17.506l-0.016 0.014c4.725 4.376 7.673 10.613 7.673 17.538 0 0.002 0 0.004 0 0.007v0 1.748c-0.014 10.672-7.003 19.708-16.651 22.795l-0.17 0.047v7.414c-0.162 3.4-2.958 6.094-6.383 6.094s-6.221-2.695-6.382-6.080l-0.001-0.015v-6.335h-4.669v6.335c-0.162 3.4-2.958 6.094-6.383 6.094s-6.221-2.695-6.382-6.080l-0.001-0.015v-6.335h-7.25c-3.529 0-6.39-2.861-6.39-6.39v0-73.66c0.008-3.523 2.866-6.376 6.39-6.376 0 0 0 0 0 0v0zM573.44 428.94v-1.748c-0.008-6.157-4.997-11.147-11.154-11.155h-23.949v24.057h23.948c6.157-0.008 11.147-4.997 11.155-11.154v-0.001zM538.337 476.918h23.948c6.157-0.008 11.147-4.997 11.155-11.154v-1.749c-0.008-6.157-4.997-11.147-11.154-11.155h-23.949z" />
<glyph unicode="&#xe954;" d="M673.969 446.758c0-0.043 0-0.094 0-0.144 0-32.331-13.037-61.618-34.141-82.889l0.008 0.008c-0.137-0.164-0.246-0.328-0.396-0.478s-0.314-0.259-0.478-0.396c-21.289-21.205-50.654-34.314-83.081-34.314-33.435 0-63.615 13.938-85.047 36.32l-0.041 0.043q-3.946 4.096-7.523 8.643v23.101c2.974-5.453 6.059-10.123 9.486-14.513l-0.174 0.232c1.447-1.871 2.963-3.686 4.506-5.461l3.564 3.55c1.174 1.296 2.863 2.107 4.742 2.107 3.529 0 6.39-2.861 6.39-6.39 0-1.878-0.811-3.568-2.101-4.737l-3.582-3.582c16.909-15.111 38.929-24.82 63.175-26.256l0.286-0.014v5.038c0.162 3.4 2.958 6.094 6.383 6.094s6.221-2.695 6.382-6.080l0.001-0.015v-5.024c24.51 1.515 46.498 11.227 63.51 26.401l-0.104-0.091-3.523 3.523c-1.296 1.174-2.107 2.863-2.107 4.742 0 3.529 2.861 6.39 6.39 6.39 1.878 0 3.568-0.811 4.737-2.101l3.528-3.528c15.083 16.908 24.795 38.896 26.295 63.108l0.015 0.298h-5.024c-0.088-0.004-0.191-0.007-0.295-0.007-3.529 0-6.39 2.861-6.39 6.39s2.861 6.39 6.39 6.39c0.104 0 0.207-0.002 0.31-0.007l-0.015 0.001h5.024c-1.515 24.51-11.227 46.498-26.401 63.51l0.091-0.104-3.523-3.523c-1.174-1.296-2.863-2.107-4.742-2.107-3.529 0-6.39 2.861-6.39 6.39 0 1.878 0.811 3.568 2.101 4.737l3.528 3.528c-16.908 15.083-38.896 24.795-63.108 26.295l-0.298 0.015v-5.024c-0.162-3.4-2.958-6.094-6.383-6.094s-6.221 2.695-6.382 6.080l-0.001 0.015v5.011c-24.519-1.475-46.523-11.179-63.536-26.359l0.103 0.090 3.55-3.55c1.296-1.174 2.107-2.863 2.107-4.742 0-3.529-2.861-6.39-6.39-6.39-1.878 0-3.568 0.811-4.737 2.101l-3.555 3.555c-1.556-1.761-3.072-3.564-4.519-5.461-3.24-4.152-6.319-8.818-9.022-13.721l-0.276-0.547v23.17q3.564 4.478 7.523 8.588l1.57 1.611v0.082l0.109 0.082c3.386 3.386 6.979 6.564 10.76 9.513l0.259 0.194q2.99 2.335 6.13 4.465c18.56 12.737 41.509 20.342 66.235 20.342 32.385 0 61.723-13.045 83.046-34.168l-0.009 0.009c0.164-0.137 0.328-0.246 0.478-0.396s0.259-0.314 0.396-0.478c21.096-21.264 34.133-50.55 34.133-82.882 0-0.051 0-0.102 0-0.152v0.008z" />
<glyph unicode="&#xe955;" d="M470.74 528.568v37.028h-7.523v-228.42h7.523v27.716c3.921-4.098 8.089-7.875 12.51-11.344l0.256-0.193v-22.596c0-0.004 0-0.009 0-0.014 0-3.521-2.855-6.376-6.376-6.376-0.005 0-0.010 0-0.014 0h-20.288c-3.529 0-6.39 2.861-6.39 6.39v241.254c0 0.004 0 0.009 0 0.014 0 3.521 2.855 6.376 6.376 6.376 0.005 0 0.010 0 0.014 0h20.288c0.004 0 0.009 0 0.014 0 3.521 0 6.376-2.855 6.376-6.376 0-0.005 0-0.010 0-0.014v0.001-31.949c-4.039-3.144-7.632-6.322-11.018-9.708v0l-0.109-0.082v-0.082l-1.57-1.611z" />
<glyph unicode="&#xe956;" d="M232.727 960h558.545c128.532 0 232.727-104.196 232.727-232.727v-558.545c0-128.532-104.196-232.727-232.727-232.727h-558.545c-128.532 0-232.727 104.196-232.727 232.727v558.545c0 128.532 104.196 232.727 232.727 232.727z" />
<glyph unicode="&#xe957;" d="M232.727 866.909c-77.119 0-139.636-62.517-139.636-139.636v0-558.545c0-77.119 62.517-139.636 139.636-139.636v0h558.545c77.119 0 139.636 62.517 139.636 139.636v0 558.545c0 77.119-62.517 139.636-139.636 139.636v0h-558.545zM232.727 960h558.545c128.532 0 232.727-104.196 232.727-232.727v0-558.545c0-128.532-104.196-232.727-232.727-232.727v0h-558.545c-128.532 0-232.727 104.196-232.727 232.727v0 558.545c0 128.532 104.196 232.727 232.727 232.727v0z" />
<glyph unicode="&#xe958;" glyph-name="pv-icons-aj" d="M16.384 488.875l369.493 369.493c10.15 10.096 24.144 16.337 39.595 16.337s29.445-6.241 39.597-16.34l33.534-33.534c10.121-10.064 16.384-23.998 16.384-39.394 0-0.070 0-0.141 0-0.211v0.011c0-0.050 0-0.109 0-0.168 0-15.541-6.257-29.621-16.389-39.858l0.005 0.005-215.637-216.491h684.8c0.203 0.003 0.444 0.004 0.684 0.004 30.162 0 54.613-24.451 54.613-54.613 0-0.152-0.001-0.303-0.002-0.454v0.023-47.36c0.003-0.234 0.005-0.51 0.005-0.786 0-30.832-24.589-55.921-55.227-56.727l-0.075-0.002h-687.189l217.941-217.173c10.082-10.045 16.321-23.942 16.321-39.296s-6.239-29.251-16.319-39.294l-0.002-0.002-33.536-33.451c-10.15-10.096-24.144-16.337-39.595-16.337s-29.445 6.241-39.597 16.34l-369.406 369.662c-10.091 10.2-16.325 24.233-16.325 39.723s6.234 29.522 16.33 39.728l-0.005-0.005z" />
<glyph unicode="&#xe959;" glyph-name="pv-icons-ak" d="M784.016-64h-544.031c-132.476 0.157-239.827 107.508-239.984 239.969v544.046c0.157 132.476 107.508 239.827 239.969 239.984h543.991c132.5-0.126 239.882-107.488 240.040-239.969v-543.991c-0.126-132.5-107.488-239.882-239.969-240.040h-0.015zM239.984 880.005c-88.259-0.251-159.739-71.731-159.99-159.965v-544c0.251-88.259 71.731-159.739 159.965-159.99h544c88.259 0.251 159.739 71.731 159.99 159.965v544c-0.251 88.259-71.731 159.739-159.965 159.99h-0.024zM793.973 779.984c-27.498 0-49.789-22.291-49.789-49.789s22.291-49.789 49.789-49.789c27.498 0 49.789 22.291 49.789 49.789v0c0 27.498-22.291 49.789-49.789 49.789v0zM511.834 188.045c-143.6 0-260.011 116.411-260.011 260.011s116.411 260.011 260.011 260.011c143.6 0 260.011-116.411 260.011-260.011v0c-0.126-143.502-116.36-259.814-259.821-260.066h-0.024zM512 628.071c-99.42 0-180.016-80.596-180.016-180.016s80.596-180.016 180.016-180.016c99.42 0 180.016 80.596 180.016 180.016v0c-0.095 99.382-80.634 179.922-180.007 180.016h-0.009z" />
<glyph unicode="&#xe95a;" glyph-name="pv-icons-al" d="M372.224 66.844l-338.034 253.554c-20.819 15.733-34.133 40.445-34.133 68.267 0 47.128 38.205 85.333 85.333 85.333 19.307 0 37.116-6.412 51.415-17.222l-0.215 0.156 219.648-164.978 500.622 500.622c15.442 15.435 36.772 24.981 60.331 24.981 47.132 0 85.341-38.208 85.341-85.341 0-23.573-9.558-44.914-25.010-60.359v0z" />
<glyph unicode="&#xe95b;" glyph-name="pv-icons-am" d="M651.349 536.917c54.089 43.998 88.363 110.553 88.363 185.113 0 131.488-106.592 238.080-238.080 238.080s-238.080-106.592-238.080-238.080c0-74.56 34.274-141.115 87.927-184.769l0.436-0.344c-91.3-33.914-166.038-94.656-216.569-172.555l-1.031-1.696c-3.133-5.547-4.979-12.18-4.979-19.245 0-21.915 17.765-39.68 39.68-39.68 13.106 0 24.728 6.354 31.953 16.149l0.077 0.109c64.538 99.361 174.974 164.154 300.544 164.154 197.269 0 357.19-159.911 357.205-357.176v-103.169h-357.205c-21.915 0-39.68-17.765-39.68-39.68s17.765-39.68 39.68-39.68h396.885c21.915 0 39.68 17.765 39.68 39.68v0 142.421c0 0.069 0 0.151 0 0.234 0 187.378-118.026 347.189-283.79 409.147l-3.015 0.988zM501.589 563.2c-87.659 0-158.72 71.061-158.72 158.72s71.061 158.72 158.72 158.72c87.659 0 158.72-71.061 158.72-158.72v0c-0.048-87.656-71.070-158.708-158.71-158.805h-0.010z" />
<glyph unicode="&#xe95c;" horiz-adv-x="1021" d="M511.994-44.007c-107.276 32.612-183.998 130.656-183.998 246.62 0 0.011 0 0.023 0 0.034v-0.001 123.634l184.318 55.961 183.703-55.961v-123.634c0-0.007 0-0.016 0-0.025 0-115.973-76.734-214.024-182.201-246.15l-1.822-0.477z" />
<glyph unicode="&#xe95d;" horiz-adv-x="1021" d="M551.891 216.432l-52.159-52.172-27.123 27.123c-3.645 3.785-8.757 6.137-14.418 6.137-11.049 0-20.006-8.957-20.006-20.006 0-5.661 2.351-10.773 6.13-14.412l41.273-41.273c3.619-3.622 8.62-5.862 14.144-5.862s10.525 2.24 14.144 5.862v0l66.303 66.303c3.62 3.62 5.859 8.62 5.859 14.144 0 11.047-8.955 20.002-20.002 20.002-5.524 0-10.524-2.239-14.144-5.859v0z" />
<glyph unicode="&#xe95e;" horiz-adv-x="1021" d="M977.562 193.29c-3.234 2.343-7.28 3.749-11.655 3.749-6.669 0-12.576-3.266-16.208-8.285l-0.040-0.058c-33.832-46.672-88.143-76.703-149.474-76.799h-99.393c9.645 26.967 15.219 58.077 15.219 90.488 0 0.101 0 0.203 0 0.304v-0.016 123.634c0 0.003 0 0.006 0 0.009 0 8.964-5.9 16.551-14.028 19.088l-0.142 0.038-183.716 55.948c-1.74 0.55-3.742 0.866-5.818 0.866s-4.077-0.317-5.959-0.904l0.141 0.038-184.318-55.961c-8.277-2.572-14.182-10.161-14.182-19.13 0-0.024 0-0.049 0-0.073v0.004-123.634c0-0.083 0-0.181 0-0.28 0-32.415 5.574-63.528 15.817-92.432l-0.598 1.935h-154.891c-0.072 0-0.158 0-0.243 0-70.861 0-128.306 57.444-128.306 128.306 0 56.625 36.682 104.683 87.58 121.707l0.905 0.263c8.057 2.707 13.758 10.191 13.758 19.005 0 1.122-0.092 2.222-0.27 3.293l0.016-0.116c-1.389 8.157-2.183 17.554-2.183 27.136 0 93.697 75.929 169.659 169.613 169.713h0.005c0.113 0 0.246 0 0.379 0 23.248 0 45.397-4.705 65.546-13.216l-1.107 0.415c2.26-0.961 4.889-1.519 7.648-1.519 6.987 0 13.137 3.582 16.715 9.009l0.047 0.075c38.196 58.163 103.128 96.036 176.905 96.036 104.049 0 190.505-75.33 207.803-174.427l0.182-1.262c1.65-9.415 9.699-16.5 19.428-16.64h0.015c83.019-1.468 152.558-57.503 174.373-133.697l0.319-1.303c2.232-8.794 10.078-15.197 19.419-15.197 11.049 0 20.006 8.957 20.006 20.006 0 2.070-0.314 4.066-0.898 5.943l0.038-0.142c-13.52 47.575-40.891 87.553-77.428 116.451l-0.472 0.36c-30.404 24.127-67.944 40.548-108.986 45.736l-1.093 0.113v342.127c0 0.004 0 0.008 0 0.013 0 11.042-8.951 19.993-19.993 19.993-0.013 0-0.027 0-0.040 0h-94.717v60.006c0 11.042-8.951 19.993-19.993 19.993-0.005 0-0.009 0-0.014 0h-337.582c-5.524 0-10.525-2.24-14.144-5.862l-139.698-139.813c-3.602-3.606-5.835-8.581-5.85-14.077v-212.352c-58.346-37.853-96.407-102.663-96.434-176.365v-0.004c0-5.773 0.243-11.52 0.717-17.357-59.563-26.797-100.286-85.621-100.286-153.956 0-92.959 75.358-168.318 168.317-168.318h172.414c7.263-13.46 14.643-24.919 22.791-35.769l-0.52 0.723c35.295-47.193 84.417-82.312 141.319-99.511l1.95-0.507c1.707-0.527 3.669-0.83 5.702-0.83s3.995 0.303 5.844 0.868l-0.142-0.037c58.851 17.706 107.974 52.825 142.754 99.299l0.515 0.719c7.627 10.126 15.007 21.586 21.538 33.574l0.734 1.472h116.914c74.678 0.097 140.802 36.638 181.552 92.789l0.449 0.65c2.343 3.234 3.749 7.28 3.749 11.655 0 6.669-3.266 12.576-8.285 16.208l-0.058 0.040zM787.997 840.001v-245.949c-19.458 30.863-44.45 56.43-73.807 75.956l-0.918 0.575v169.419zM335.689 891.687v-71.5h-71.436zM236.003 780.188h119.691c0.004 0 0.008 0 0.013 0 11.042 0 19.993 8.951 19.993 19.993 0 0.005 0 0.009 0 0.014v-0.001 119.807h297.571v-228.016c-28.909 12.596-62.588 19.924-97.979 19.924-82.089 0-154.97-39.427-200.739-100.377l-0.465-0.647c-19.357 6.5-41.648 10.25-64.814 10.25-26.315 0-51.5-4.839-74.713-13.676l1.442 0.482zM512.006-23.028c-95.712 32.27-163.503 121.002-164.004 225.639v108.859l164.286 49.919 163.71-49.919v-108.799c-0.5-104.694-68.285-193.425-162.308-225.206l-1.683-0.494z" />
<glyph unicode="&#xe95f;" horiz-adv-x="1021" d="M1015.015 274.133c-3.617 3.614-8.613 5.849-14.131 5.849-11.042 0-19.993-8.951-19.993-19.993s8.951-19.993 19.993-19.993c11.042 0 19.993 8.951 19.993 19.993 0 0.023 0 0.045 0 0.068v-0.004c-0.036 5.498-2.269 10.467-5.863 14.081l0.001-0.001z" />
<glyph unicode="&#xe960;" glyph-name="pv-icons-ao" d="M860.433 833.638h-189.508v63.215c0 34.875-28.272 63.147-63.147 63.147v0h-189.508c-34.875 0-63.147-28.272-63.147-63.147v-63.147h-189.577c-34.875 0-63.147-28.272-63.147-63.147v-63.147c0.039-34.835 28.248-63.069 63.071-63.147h695.031c34.859 0.039 63.108 28.287 63.147 63.143v63.082c0 34.875-28.272 63.147-63.147 63.147-0.024 0-0.048 0-0.072 0h0.004zM607.846 833.638h-189.577v31.607c0 17.456 14.151 31.607 31.607 31.607v0h126.362c17.456 0 31.607-14.151 31.607-31.607v0zM165.615 75.878c0-69.788 56.574-126.362 126.362-126.362v0h442.163c69.788 0 126.362 56.574 126.362 126.362v0 505.173h-694.955zM639.386 486.502c-0.022 0.438-0.034 0.952-0.034 1.469 0 17.456 14.151 31.607 31.607 31.607s31.607-14.151 31.607-31.607c0-0.517-0.012-1.030-0.037-1.541l0.003 0.072v-379.017c0.022-0.438 0.034-0.952 0.034-1.469 0-17.456-14.151-31.607-31.607-31.607s-31.607 14.151-31.607 31.607c0 0.517 0.012 1.030 0.037 1.541l-0.003-0.072zM481.485 486.502c-0.022 0.438-0.034 0.952-0.034 1.469 0 17.456 14.151 31.607 31.607 31.607s31.607-14.151 31.607-31.607c0-0.517-0.012-1.030-0.037-1.541l0.003 0.072v-379.017c0.022-0.438 0.034-0.952 0.034-1.469 0-17.456-14.151-31.607-31.607-31.607s-31.607 14.151-31.607 31.607c0 0.517 0.012 1.030 0.037 1.541l-0.003-0.072zM323.584 486.502c0.806 16.813 14.634 30.139 31.573 30.139s30.767-13.326 31.571-30.067l0.003-0.072v-379.017c-0.806-16.813-14.634-30.139-31.573-30.139s-30.767 13.326-31.571 30.067l-0.003 0.072z" />
<glyph unicode="&#xe961;" glyph-name="pv-icons-ap" d="M36.571 448l950.857 512v-1024z" />
<glyph unicode="&#xe962;" glyph-name="pv-icons-aq" d="M1021.433 82.53c-4.341 17.76-20.117 30.735-38.924 30.735-22.099 0-40.015-17.915-40.015-40.015 0-2.481 0.226-4.909 0.658-7.265l-0.037 0.245c0.576-2.601 0.905-5.589 0.905-8.654 0-10.041-3.54-19.256-9.44-26.464l0.059 0.074c-7.53-9.302-18.949-15.2-31.744-15.2-0.085 0-0.171 0-0.256 0.001h-781.251c-0.072 0-0.158-0.001-0.243-0.001-12.796 0-24.214 5.898-31.684 15.123l-0.060 0.076c-5.841 7.134-9.381 16.348-9.381 26.389 0 3.065 0.33 6.053 0.956 8.93l-0.050-0.276c43.062 197.561 213.852 344.241 419.871 349.931l0.608 0.013q5.297-0.204 10.595-0.204t10.635 0.204c147.84-3.62 277.188-79.604 354.373-193.751l0.991-1.554c7.21-11.245 19.645-18.59 33.796-18.59 22.099 0 40.015 17.915 40.015 40.015 0 8.664-2.753 16.684-7.433 23.234l0.082-0.122c-64.359 95.242-157.095 167.025-265.962 203.766l-3.669 1.075c66.595 50.136 109.205 129.042 109.205 217.9 0 150.218-121.776 271.994-271.994 271.994s-271.994-121.776-271.994-271.994c0-88.858 42.61-167.763 108.511-217.399l0.694-0.501c-175.604-59.027-307.336-204.38-346.028-384.298l-0.616-3.42c-1.677-7.569-2.638-16.264-2.638-25.182 0-67.076 54.35-121.458 121.414-121.511h781.269c67.069 0.052 121.419 54.435 121.419 121.511 0 8.919-0.961 17.613-2.785 25.985l0.147-0.802zM320.036 688.006c0 106.041 85.964 192.005 192.005 192.005s192.005-85.964 192.005-192.005c0-102.63-80.522-186.454-181.836-191.74l-0.471-0.020h-19.396c-101.73 5.43-182.179 89.18-182.307 191.748v0.013z" />
<glyph unicode="&#xe963;" glyph-name="pv-icons-ar" d="M483.669 944.299l-354.19-354.19c-9.674-9.728-15.654-23.138-15.654-37.945s5.98-28.217 15.656-37.947l-0.002 0.002 32.199-32.085c9.646-9.699 23.001-15.702 37.758-15.702 0.086 0 0.172 0 0.257 0.001h-0.013c0.034 0 0.075 0 0.116 0 14.905 0 28.409 5.996 38.233 15.707l-0.005-0.005 207.076 206.507v-656.498c-0.003-0.203-0.004-0.443-0.004-0.683 0-28.905 23.432-52.338 52.338-52.338 0.002 0 0.003 0 0.005 0v0h45.511c0.208-0.003 0.454-0.005 0.7-0.005 29.558 0 53.609 23.58 54.367 52.955l0.001 0.070v658.887l208.668-208.896c9.63-9.703 22.972-15.709 37.717-15.709s28.088 6.006 37.714 15.706l32.088 32.088c9.674 9.728 15.654 23.138 15.654 37.945s-5.98 28.217-15.656 37.947l-354.302 354.188c-9.782 9.694-23.25 15.683-38.116 15.683s-28.333-5.99-38.12-15.687l0.004 0.004z" />
<glyph unicode="&#xe964;" glyph-name="pv-icons-as" d="M743.424-63.878c-33.244 0.027-64.122 10.136-89.747 27.434l0.57-0.363-214.734 142.83c-10.793 7.296-17.795 19.49-17.795 33.319 0 22.141 17.949 40.089 40.089 40.089 8.312 0 16.033-2.53 22.436-6.861l-0.141 0.090 214.367-142.891c12.636-8.501 28.198-13.569 44.943-13.569 40.040 0 73.313 28.976 79.993 67.103l0.071 0.487 119.004 701.408c0.725 4.075 1.14 8.766 1.14 13.554 0 44.82-36.334 81.153-81.153 81.153-11.992 0-23.376-2.601-33.619-7.269l0.508 0.207-701.715-313.711c-28.518-13-47.983-41.259-47.983-74.065 0-28.053 14.234-52.781 35.873-67.356l0.289-0.184 97.996-65.168c10.823-7.277 17.85-19.478 17.85-33.319 0-22.103-17.918-40.022-40.022-40.022-8.262 0-15.939 2.504-22.315 6.793l0.143-0.091-97.996 65.168c-43.347 29.427-71.452 78.483-71.452 134.104 0 65.098 38.498 121.203 93.969 146.792l1.002 0.415 701.47 313.711c19.359 8.888 42 14.070 65.852 14.070 88.997 0 161.143-72.146 161.143-161.143 0-9.535-0.828-18.878-2.417-27.958l0.14 0.965-118.759-701.408c-13.44-76.738-79.572-134.316-159.153-134.316-0.032 0-0.064 0-0.096 0h0.005zM347.642-24.005v184.723c0.114 37.704 15.474 71.799 40.235 96.461l0.004 0.004 375.938 372.447c7.32 7.251 11.853 17.306 11.853 28.419 0 22.089-17.907 39.996-39.996 39.996-10.976 0-20.919-4.421-28.146-11.58l0.003 0.003-376-372.447c-39.32-39.155-63.719-93.266-63.942-153.077v-184.766c0-22.088 17.906-39.995 39.995-39.995s39.995 17.906 39.995 39.995v0z" />
<glyph unicode="&#xe965;" glyph-name="pv-icons-av" d="M518.861 46.797c-132.045 0-247.91 8.653-321.894 15.872-93.746 9.131-168.269 80.945-181.478 172.583l-0.129 1.088c-9.916 64.873-15.579 139.718-15.579 215.885s5.664 151.013 16.593 224.137l-1.014-8.253c13.337 92.726 87.861 164.54 180.775 173.605l0.831 0.066c73.984 7.219 189.85 15.872 321.894 15.872s247.91-8.653 321.894-15.872c93.645-9.217 168.061-80.977 181.273-172.531l0.129-1.089c9.916-64.873 15.579-139.718 15.579-215.885s-5.664-151.013-16.593-224.137l1.014 8.253c-13.341-92.643-87.757-164.402-180.564-173.552l-0.838-0.067c-73.984-7.322-189.85-15.974-321.894-15.974zM518.861 776.499c-128.768 0-241.818-8.397-314.010-15.36-56.286-5.506-101.027-48.621-108.978-103.64l-0.078-0.655c-9.419-61.459-14.798-132.36-14.798-204.518s5.38-143.061 15.76-212.328l-0.962 7.81c7.959-55.723 52.696-98.905 108.501-104.408l0.503-0.040c72.192-7.066 185.242-15.36 314.010-15.36s241.818 8.397 314.010 15.36c56.431 5.434 101.301 48.678 109.185 103.849l0.076 0.65c9.262 61.327 14.635 132.211 14.796 204.32v0.173c-0.162 72.281-5.535 143.166-15.764 212.469l0.967-7.976c-8.029 55.674-52.77 98.789-108.555 104.255l-0.501 0.040c-72.141 7.066-185.242 15.36-314.010 15.36zM466.278 260.045c-55.838 0.201-101.073 45.311-101.478 101.081v183.13c0.198 55.866 45.533 101.078 101.427 101.078 19.268 0 37.281-5.373 52.622-14.701l-0.449 0.254 153.856-91.546c29.594-17.96 49.064-50.009 49.064-86.605s-19.47-68.645-48.617-86.352l-0.448-0.253-153.856-91.546c-14.848-9.058-32.8-14.44-52.005-14.49h-0.014zM466.278 564.173c-3.777-0.069-7.297-1.105-10.343-2.871l0.103 0.055c-6.136-3.273-10.241-9.633-10.241-16.951 0-0.071 0-0.141 0.001-0.212v0.011-183.091c-0.001-0.060-0.001-0.13-0.001-0.201 0-7.318 4.105-13.677 10.138-16.901l0.103-0.050c2.986-1.799 6.591-2.864 10.445-2.864s7.459 1.064 10.537 2.915l-0.093-0.052 153.856 91.546c5.924 3.423 9.847 9.727 9.847 16.947s-3.923 13.524-9.753 16.897l-0.094 0.050-153.907 91.802c-2.921 1.801-6.445 2.896-10.22 2.969h-0.020z" />
<glyph unicode="&#xe966;" glyph-name="pv-icons-aw" d="M1003.52 29.248l-243.2 252.928c60.075 71.171 96.588 163.929 96.588 265.216 0 227.771-184.645 412.416-412.416 412.416s-412.416-184.645-412.416-412.416c0-227.771 184.645-412.416 412.416-412.416 0.018 0 0.036 0 0.055 0h-0.002c0.299-0.001 0.653-0.001 1.007-0.001 88.195 0 169.856 27.975 236.594 75.535l-1.249-0.846 245.056-254.848c9.85-10.528 23.828-17.088 39.338-17.088 29.726 0 53.824 24.098 53.824 53.824 0 14.778-5.956 28.165-15.598 37.892l0.004-0.004zM444.544 852.352c0.019 0 0.042 0 0.064 0 168.425 0 304.96-136.535 304.96-304.96s-136.535-304.96-304.96-304.96c-168.425 0-304.96 136.535-304.96 304.96 0 0.022 0 0.045 0 0.067v-0.003c0.218 168.301 136.595 304.678 304.875 304.896h0.021z" />
<glyph unicode="&#xe967;" d="M74.17 256.663h144.013v-300.66h-144.013z" />
<glyph unicode="&#xe968;" d="M949.83-43.997h-144v491.727h144z" />
<glyph unicode="&#xe969;" d="M462.057-43.997h-144v411.998h144z" />
<glyph unicode="&#xe96a;" d="M705.943-43.997h-144v300.66h144z" />
<glyph unicode="&#xe96b;" d="M402.318 831.997h-322.576c-32.993 0-59.739-26.746-59.739-59.739v0-197.128c0-32.993 26.746-59.739 59.739-59.739v0h65.247v-69.522c0-0.003 0-0.006 0-0.009 0-7.537 6.11-13.648 13.648-13.648 3.771 0 7.185 1.529 9.655 4.002v0l79.177 79.177h154.849c32.993 0 59.739 26.746 59.739 59.739v197.128c0 32.993-26.746 59.739-59.739 59.739v0z" />
<glyph unicode="&#xe96c;" d="M621.682 939.997h322.589c32.993 0 59.739-26.746 59.739-59.739v0-197.128c0-32.993-26.746-59.739-59.739-59.739v0h-65.247v-69.522c0-0.003 0-0.006 0-0.009 0-7.537-6.11-13.648-13.648-13.648-3.771 0-7.185 1.529-9.655 4.002v0l-79.177 79.177h-154.862c-32.993 0-59.739 26.746-59.739 59.739v0 197.128c0 32.993 26.746 59.739 59.739 59.739v0z" />
<glyph unicode="&#xe96d;" d="M79.742 495.388h45.244v-49.519c0-0.011 0-0.023 0-0.035 0-18.578 15.060-33.638 33.638-33.638 9.304 0 17.726 3.777 23.815 9.882l73.311 73.311h146.568c44.020 0.051 79.691 35.722 79.742 79.737v197.145c-0.058 44.014-35.727 79.678-79.737 79.729h-71.299c-11.047 0-20.003-8.956-20.003-20.003s8.956-20.003 20.003-20.003h71.294c0 0 0 0 0 0 21.959 0 39.764-17.783 39.8-39.733v-197.131c-0.037-21.954-17.842-39.736-39.8-39.736 0 0 0 0 0 0h-154.849c-5.515-0.005-10.507-2.241-14.123-5.855l-68.341-68.341v54.193c0 11.047-8.956 20.003-20.003 20.003v0h-65.26c0 0 0 0 0 0-21.959 0-39.764 17.783-39.8 39.733v197.143c0.037 21.954 17.842 39.736 39.8 39.736 0 0 0 0 0 0h71.294c11.047 0 20.003 8.956 20.003 20.003s-8.956 20.003-20.003 20.003h-71.294c-44.020-0.051-79.691-35.722-79.742-79.737v-197.145c0.051-44.020 35.722-79.691 79.737-79.742h0.005z" />
<glyph unicode="&#xe96e;" d="M944.258 960h-322.576c-44.020-0.051-79.691-35.722-79.742-79.737v-197.133c0.051-44.020 35.722-79.691 79.737-79.742h146.586l73.31-73.31c6.090-6.095 14.507-9.865 23.803-9.865 18.585 0 33.651 15.066 33.651 33.651 0 0.002 0 0.003 0 0.005v0 49.532h45.244c44.020 0.051 79.691 35.722 79.742 79.737v197.133c-0.058 44.019-35.734 79.685-79.751 79.729h-0.004zM984.058 683.13c-0.037-21.954-17.842-39.736-39.8-39.736 0 0 0 0 0 0h-65.247c-11.047 0-20.003-8.956-20.003-20.003v0-54.193l-68.341 68.341c-3.615 3.613-8.607 5.85-14.122 5.855h-154.863c0 0 0 0 0 0-21.959 0-39.764 17.783-39.8 39.733v197.131c0.037 21.954 17.842 39.736 39.8 39.736 0 0 0 0 0 0h322.576c21.914-0.058 39.661-17.819 39.698-39.733v-0.003z" />
<glyph unicode="&#xe96f;" d="M999.991-23.994h-30.171v471.737c0 11.047-8.956 20.003-20.003 20.003h-143.988c-11.047 0-20.003-8.956-20.003-20.003v0-471.75h-59.88v280.67c0 11.047-8.956 20.003-20.003 20.003h-144c-11.047 0-20.003-8.956-20.003-20.003v0-280.67h-59.88v391.957c0 11.047-8.956 20.003-20.003 20.003v0h-144c-11.047 0-20.003-8.956-20.003-20.003v0-391.995h-59.88v280.708c0 11.047-8.956 20.003-20.003 20.003v0h-144c-11.047 0-20.003-8.956-20.003-20.003v0-280.67h-34.164c-11.047 0-20.003-8.956-20.003-20.003s8.956-20.003 20.003-20.003h979.988c11.047 0 20.003 8.956 20.003 20.003s-8.956 20.003-20.003 20.003v0zM94.16-23.994v260.628h103.995v-260.628zM338.098-23.994v371.992h103.995v-372.005zM582.036-23.994v260.628h103.995v-260.628zM825.974-23.994v451.734h103.995v-451.747z" />
<glyph unicode="&#xe970;" d="M251.141 738.633l-56.003-111.968c-1.332-2.607-2.113-5.687-2.113-8.949 0-11.048 8.956-20.004 20.004-20.004 7.786 0 14.533 4.448 17.838 10.942l0.052 0.114 56.003 111.968c1.332 2.607 2.113 5.687 2.113 8.949 0 11.048-8.956 20.004-20.004 20.004-7.786 0-14.533-4.448-17.838-10.942l-0.052-0.114z" />
<glyph unicode="&#xe971;" d="M173.876 715.536c3.618-3.618 8.615-5.855 14.136-5.855 11.040 0 19.99 8.95 19.99 19.99s-8.95 19.99-19.99 19.99c-11.040 0-19.99-8.95-19.99-19.99 0-0.004 0-0.008 0-0.013v0.001c0.023-5.512 2.255-10.499 5.856-14.124l-0.001 0.001z" />
<glyph unicode="&#xe972;" d="M274.019 617.704c0-0.002 0-0.004 0-0.007 0-11.033 8.944-19.977 19.977-19.977s19.977 8.944 19.977 19.977c0 11.033-8.944 19.977-19.977 19.977-5.515 0-10.508-2.235-14.123-5.848v0c-3.604-3.621-5.838-8.609-5.855-14.119v-0.003z" />
<glyph unicode="&#xe973;" d="M905.125 865.545h-45.334c-0.022 0-0.048 0-0.074 0-11.040 0-19.99-8.95-19.99-19.99 0-10.097 7.486-18.446 17.211-19.799l0.105-0.012-60.278-60.343-44.166 44.166c-3.618 3.607-8.61 5.837-14.123 5.837s-10.505-2.23-14.123-5.838v0l-77.662-77.662c-4.095-3.678-6.659-8.991-6.659-14.902 0-11.047 8.956-20.003 20.003-20.003 5.911 0 11.224 2.564 14.885 6.641l0.016 0.018 63.527 63.527 44.166-44.166c3.618-3.607 8.61-5.837 14.123-5.837s10.505 2.23 14.123 5.838v0l74.465 74.465c1.364-9.83 9.713-17.316 19.81-17.316 11.040 0 19.99 8.95 19.99 19.99 0 0.021 0 0.043 0 0.064v-0.003 45.321c0 11.047-8.956 20.003-20.003 20.003-0.005 0-0.009 0-0.014 0h0.001z" />
<glyph unicode="&#xe974;" d="M241.023 811.994c0.011 0 0.023 0 0.035 0 11.054 0 20.016 8.961 20.016 20.016s-8.961 20.016-20.016 20.016c-11.054 0-20.016-8.961-20.016-20.016 0-5.525 2.238-10.527 5.858-14.148v0c3.622-3.606 8.609-5.842 14.118-5.867h0.005z" />
<glyph unicode="&#xe975;" glyph-name="pv-icons-az" d="M372.224 66.844l-338.034 253.554c-20.819 15.733-34.133 40.445-34.133 68.267 0 47.128 38.205 85.333 85.333 85.333 19.307 0 37.116-6.412 51.415-17.222l-0.215 0.156 219.648-164.978 500.622 500.622c15.442 15.435 36.772 24.981 60.331 24.981 47.132 0 85.341-38.208 85.341-85.341 0-23.573-9.558-44.914-25.010-60.359v0z" />
<glyph unicode="&#xe976;" glyph-name="pv-icons-b" d="M224 435.2c0-0.033 0-0.072 0-0.11 0-20.256 8.219-38.593 21.503-51.857l451.329-451.329c13.308-13.308 31.693-21.539 52-21.539 40.615 0 73.539 32.925 73.539 73.539 0 20.307-8.231 38.692-21.539 52l-399.36 399.296 399.36 399.296c13.3 13.3 21.526 31.673 21.526 51.968 0 40.59-32.904 73.494-73.494 73.494-20.295 0-38.668-8.226-51.968-21.526l-451.392-451.264c-13.285-13.265-21.504-31.602-21.504-51.858 0-0.039 0-0.078 0-0.116v0.006z" />
<glyph unicode="&#xe977;" glyph-name="pv-icons-ba" d="M384.768 54.464l-346.368 259.84c-23.421 17.7-38.4 45.501-38.4 76.8 0 53.019 42.981 96 96 96 21.72 0 41.756-7.213 57.842-19.375l-0.241 0.175 213.184-160 495.936 495.872c17.372 17.365 41.368 28.104 67.872 28.104 53.024 0 96.008-42.984 96.008-96.008 0-26.52-10.753-50.528-28.136-67.904v0z" />
<glyph unicode="&#xe978;" d="M232.727 960h558.545c128.532 0 232.727-104.196 232.727-232.727v-558.545c0-128.532-104.196-232.727-232.727-232.727h-558.545c-128.532 0-232.727 104.196-232.727 232.727v558.545c0 128.532 104.196 232.727 232.727 232.727z" />
<glyph unicode="&#xe979;" d="M232.727 866.909c-77.119 0-139.636-62.517-139.636-139.636v0-558.545c0-77.119 62.517-139.636 139.636-139.636v0h558.545c77.119 0 139.636 62.517 139.636 139.636v0 558.545c0 77.119-62.517 139.636-139.636 139.636v0h-558.545zM232.727 960h558.545c128.532 0 232.727-104.196 232.727-232.727v0-558.545c0-128.532-104.196-232.727-232.727-232.727v0h-558.545c-128.532 0-232.727 104.196-232.727 232.727v0 558.545c0 128.532 104.196 232.727 232.727 232.727v0z" />
<glyph unicode="&#xe97a;" d="M404.154 158.627l-238.685 193.955c-15.797 12.905-25.801 32.385-25.801 54.202 0 38.568 31.265 69.833 69.833 69.833 16.751 0 32.124-5.898 44.157-15.73l-0.125 0.099 136.983-111.29 328.052 355.328c12.891 15.21 32.008 24.799 53.365 24.799 38.56 0 69.818-31.259 69.818-69.818 0-19.445-7.95-37.034-20.776-49.694l-0.008-0.007z" />
<glyph unicode="&#xe97b;" horiz-adv-x="1035" d="M139.621 557.098c61.397 204.237 275.705 321.372 480.917 262.144 1.386-0.4 2.769-0.807 4.147-1.221l-0.21 0.063c1.184-0.327 2.579-0.722 3.975-1.124 205.212-59.227 324.147-272.541 267.334-477.87l-0.060-0.214c-61.408-204.222-275.706-321.344-480.909-262.119-1.395 0.403-2.787 0.813-4.174 1.229l0.211-0.063c-1.176 0.325-2.563 0.717-3.949 1.117-205.203 59.225-324.137 272.523-267.342 477.843l0.060 0.215z" />
<glyph unicode="&#xe97c;" horiz-adv-x="1035" d="M114.155 564.448c0.037 0.127 0.080 0.278 0.123 0.428 31.639 109.622 105.561 195.569 198.92 245.228l0.129 0.068c94.268 50.305 207.61 65.386 318.524 33.374s198.79-105.168 251.825-198.088l-0.070 0.122c52.565-92.051 69.272-204.296 37.596-314.046s-105.622-195.831-199.033-245.653l-0.119-0.063c-94.268-50.305-207.61-65.386-318.524-33.374s-198.79 105.168-251.825 198.088l0.070-0.122c-52.614 91.894-69.371 204.012-37.732 313.635 0.041 0.142 0.082 0.284 0.123 0.425l-0.006-0.022zM870.258 346.224c52.599 191.591-58.332 390.19-249.56 445.382-1.255 0.362-2.51 0.717-3.765 1.065l0.192-0.054c-1.050 0.315-2.292 0.681-3.537 1.040-191.228 55.192-390.922-53.756-448.431-243.676l-0.070-0.234c-52.581-191.584 58.348-390.167 249.567-445.356 1.246-0.359 2.492-0.712 3.738-1.058l-0.19 0.053c1.057-0.318 2.308-0.686 3.563-1.048 191.219-55.189 390.903 53.746 448.423 243.649l0.071 0.236z" />
<glyph unicode="&#xe97d;" horiz-adv-x="1035" d="M521.701 723.176c-92.032 0-166.638-74.606-166.638-166.638s74.606-166.638 166.638-166.638c92.032 0 166.638 74.606 166.638 166.638v0c-0.196 91.953-74.685 166.442-166.619 166.638h-0.019z" />
<glyph unicode="&#xe97e;" horiz-adv-x="1035" d="M831.785 263.392c-5.251 11.662-11.319 21.707-18.419 30.915l0.263-0.355c-36.592 48.836-91.485 82.235-154.32 90.006l-1.106 0.112c-1.251 0.156-2.699 0.246-4.168 0.246-6.928 0-13.392-1.987-18.854-5.421l0.147 0.086c-31.963-21.429-71.297-34.201-113.614-34.201s-81.652 12.771-114.359 34.67l0.745-0.469c-4.978 3.444-11.144 5.502-17.79 5.502-1.795 0-3.555-0.15-5.269-0.438l0.185 0.026c-64.003-7.679-118.963-41.135-155-89.519l-0.427-0.599c-6.629-8.853-12.683-18.881-17.702-29.494l-0.454-1.066c-0.882-1.812-1.397-3.942-1.397-6.192 0-2.832 0.817-5.474 2.227-7.702l-0.035 0.059c7.084-11.072 14.066-20.583 21.586-29.629l-0.382 0.473c11.145-13.933 23.033-26.316 35.942-37.556l0.344-0.293c10.869-9.708 22.691-19.269 34.971-28.24l1.314-0.916c60.209-41.019 134.546-65.494 214.599-65.494s154.39 24.476 215.935 66.352l-1.336-0.858c13.53 9.48 25.366 19.053 36.511 29.362l-0.225-0.206c13.038 11.717 24.908 24.082 35.819 37.269l0.466 0.58c7.287 8.608 14.273 18.123 20.586 28.108l0.619 1.048c2.348 2.146 3.816 5.221 3.816 8.64 0 1.893-0.45 3.681-1.249 5.263l0.031-0.067z" />
<glyph unicode="&#xe97f;" d="M1023.838 447.988c0-282.776-229.194-512.012-511.919-512.012s-511.919 229.235-511.919 512.012c0 282.776 229.194 512.012 511.919 512.012s511.919-229.235 511.919-512.012z" />
<glyph unicode="&#xe980;" d="M1023.838 447.988c0-282.776-229.194-512.012-511.919-512.012s-511.919 229.235-511.919 512.012c0 282.776 229.194 512.012 511.919 512.012s511.919-229.235 511.919-512.012z" />
<glyph unicode="&#xe981;" d="M1023.838 447.988c0-282.776-229.194-512.012-511.919-512.012s-511.919 229.235-511.919 512.012c0 282.776 229.194 512.012 511.919 512.012s511.919-229.235 511.919-512.012z" />
<glyph unicode="&#xe982;" d="M511.919 955.080c0.075 0 0.163 0 0.251 0 279.982 0 506.953-226.971 506.953-506.953 0-140.099-56.83-266.926-148.696-358.683l-0.005-0.005c-91.728-91.581-218.37-148.215-358.239-148.215-280.033 0-507.045 227.012-507.045 507.045 0 208.654 126.033 387.872 306.124 465.679l3.287 1.264c57.961 25.205 125.478 39.868 196.419 39.868 0.335 0 0.67 0 1.004-0.001h-0.052zM511.919-34.781c266.614 0 482.746 216.133 482.746 482.746s-216.133 482.746-482.746 482.746c-266.614 0-482.746-216.133-482.746-482.746v0c0.302-266.492 216.254-482.444 482.717-482.746h0.029z" />
<glyph unicode="&#xe983;" d="M757.335 515.596c10.717 71.604-43.886 110.015-118.261 135.677l24.16 97.011-59.038 14.598-23.56-94.378c-15.499 3.88-31.39 7.507-47.258 11.133l23.722 95.002-58.969 14.713-24.16-97.011c-12.842 2.933-25.408 5.798-37.673 8.87v0.3l-81.374 20.303-15.66-62.896s43.886-10.024 42.87-10.648c15.64-1.944 27.625-15.154 27.625-31.163 0-1.121-0.059-2.228-0.173-3.319l0.012 0.136-27.51-110.431c2.463-0.617 4.511-1.281 6.5-2.064l-0.356 0.123-6.236 1.524-38.574-154.756c-2.838-8.783-10.942-15.024-20.505-15.024-2.346 0-4.604 0.376-6.718 1.070l0.152-0.043c0.624-0.855-42.87 10.694-42.87 10.694l-29.242-67.446 76.801-19.148c14.275-3.58 28.249-7.345 42.015-10.856l-24.391-98.028 58.946-14.667 24.16 97.011c16.169-4.342 31.737-8.361 47.027-12.196l-24.091-96.526 58.969-14.667 24.391 97.82c100.615-19.056 176.237-11.364 208.089 79.642 25.662 73.243-1.27 115.49-54.188 143.092 41.509 8.545 72.703 43.547 75.355 86.28l0.013 0.268zM622.443 326.54c-18.201-73.29-141.567-33.654-181.573-23.722l32.36 129.972c40.075-10.071 168.291-29.843 149.213-106.25zM640.69 516.635c-16.631-66.661-119.278-32.776-152.446-24.484l29.357 117.799c33.284-8.292 140.551-23.768 123.204-93.292z" />
<glyph unicode="&#xe984;" d="M757.335 515.596c10.717 71.604-43.886 110.015-118.261 135.677l24.16 97.011-59.038 14.598-23.56-94.378c-15.499 3.88-31.39 7.507-47.258 11.133l23.722 95.002-58.969 14.713-24.16-97.011c-12.842 2.933-25.408 5.798-37.673 8.87v0.3l-81.374 20.303-15.66-62.896s43.886-10.024 42.87-10.648c15.64-1.944 27.625-15.154 27.625-31.163 0-1.121-0.059-2.228-0.173-3.319l0.012 0.136-27.51-110.431c2.463-0.617 4.511-1.281 6.5-2.064l-0.356 0.123-6.236 1.524-38.574-154.756c-2.838-8.783-10.942-15.024-20.505-15.024-2.346 0-4.604 0.376-6.718 1.070l0.152-0.043c0.624-0.855-42.87 10.694-42.87 10.694l-29.242-67.446 76.801-19.148c14.275-3.58 28.249-7.345 42.015-10.856l-24.391-98.028 58.946-14.667 24.16 97.011c16.169-4.342 31.737-8.361 47.027-12.196l-24.091-96.526 58.969-14.667 24.391 97.82c100.615-19.056 176.237-11.364 208.089 79.642 25.662 73.243-1.27 115.49-54.188 143.092 41.509 8.545 72.703 43.547 75.355 86.28l0.013 0.268zM622.443 326.54c-18.201-73.29-141.567-33.654-181.573-23.722l32.36 129.972c40.075-10.071 168.291-29.843 149.213-106.25zM640.69 516.635c-16.631-66.661-119.278-32.776-152.446-24.484l29.357 117.799c33.284-8.292 140.551-23.768 123.204-93.292z" />
<glyph unicode="&#xe985;" d="M998.492 924.606v-951.349c0-0.002 0-0.004 0-0.007 0-9.18-6.131-16.929-14.522-19.374l-0.143-0.036h-0.184c-3.938-1.129 32.965-0.748-664.287-0.748v991.718h658.944c11.159 0 20.204-9.046 20.204-20.204v0z" />
<glyph unicode="&#xe986;" d="M894.805-46.933h-405.753c-29.169 0-52.815 23.646-52.815 52.815s23.646 52.815 52.815 52.815h405.74c29.169 0 52.815-23.646 52.815-52.815s-23.646-52.815-52.815-52.815v0z" />
<glyph unicode="&#xe987;" d="M828.757 58.696h-405.74c-29.169 0-52.815 23.646-52.815 52.815s23.646 52.815 52.815 52.815h405.74c29.169 0 52.815-23.646 52.815-52.815s-23.646-52.815-52.815-52.815v0z" />
<glyph unicode="&#xe988;" d="M864.492 164.391h-405.753c-29.169 0-52.815 23.646-52.815 52.815s23.646 52.815 52.815 52.815h405.74c29.169 0 52.815-23.646 52.815-52.815s-23.646-52.815-52.815-52.815v0z" />
<glyph unicode="&#xe989;" d="M546.304-46.933h-405.662c-29.169 0-52.815 23.646-52.815 52.815s23.646 52.815 52.815 52.815h405.662c29.169 0 52.815-23.646 52.815-52.815s-23.646-52.815-52.815-52.815v0z" />
<glyph unicode="&#xe98a;" d="M480.282 58.696h-405.753c-29.169 0-52.815 23.646-52.815 52.815s23.646 52.815 52.815 52.815h405.753c29.169 0 52.815-23.646 52.815-52.815s-23.646-52.815-52.815-52.815v0z" />
<glyph unicode="&#xe98b;" d="M516.004 164.391h-405.74c-29.169 0-52.815 23.646-52.815 52.815s23.646 52.815 52.815 52.815h405.74c29.169 0 52.815-23.646 52.815-52.815s-23.646-52.815-52.815-52.815v0z" />
<glyph unicode="&#xe98c;" d="M566.837 270.073h-405.753c-29.169 0-52.815 23.646-52.815 52.815s23.646 52.815 52.815 52.815h405.753c29.169 0 52.815-23.646 52.815-52.815s-23.646-52.815-52.815-52.815v0z" />
<glyph unicode="&#xe98d;" d="M599.171 662.896c-1.478 156.049-128.323 281.982-284.581 281.982-157.177 0-284.593-127.417-284.593-284.593s127.417-284.593 284.593-284.593c0.919 0 1.837 0.004 2.754 0.013l-0.14-0.001c156.048 1.479 281.98 128.324 281.98 284.581 0 0.918-0.004 1.835-0.013 2.751l0.001-0.14z" />
<glyph unicode="&#xe98e;" d="M483.157 775.102c22.164-32.158 35.402-71.958 35.402-114.85 0-112.666-91.334-203.999-203.999-203.999s-203.999 91.334-203.999 203.999c0 112.666 91.334 203.999 203.999 203.999 10.387 0 20.592-0.776 30.561-2.274l-1.123 0.139c58.148-8.626 107.454-40.795 138.711-86.323l0.448-0.691z" />
<glyph unicode="&#xe98f;" d="M978.288 960h-666.48c-164.373-1.582-297.012-135.199-297.012-299.796 0-117.653 67.771-219.478 166.404-268.567l1.741-0.784h-21.845c-0.007 0-0.016 0-0.024 0-37.521 0-67.938-30.417-67.938-67.938 0-14.176 4.342-27.337 11.768-38.228l-0.151 0.235c-35.079-2.919-62.444-32.11-62.444-67.692 0-15.233 5.015-29.294 13.485-40.623l-0.127 0.178c-28.556-8.478-49.029-34.485-49.029-65.273 0-37.516 30.396-67.932 67.904-67.965h9.482c-7.156-10.594-11.423-23.651-11.423-37.704 0-37.521 30.417-67.938 67.938-67.938 0.010 0 0.019 0 0.029 0h837.709c19.505 0.052 35.302 15.85 35.354 35.349v951.301c0 0 0 0 0 0 0 19.539-15.81 35.386-35.335 35.446h-0.006zM161.096 360.54h405.74c0.209 0.004 0.456 0.007 0.703 0.007 20.802 0 37.665-16.863 37.665-37.665s-16.863-37.665-37.665-37.665c-0.247 0-0.494 0.002-0.74 0.007l0.037-0.001h-405.74c-20.497 0.395-36.962 17.104-36.962 37.658s16.465 37.263 36.925 37.658l0.037 0.001zM110.277 254.858h405.832c20.778-0.026 37.612-16.876 37.612-37.658 0-20.798-16.86-37.658-37.658-37.658-0.016 0-0.032 0-0.048 0h-405.738c-0.209-0.004-0.456-0.007-0.703-0.007-20.802 0-37.665 16.863-37.665 37.665s16.863 37.665 37.665 37.665c0.247 0 0.494-0.002 0.74-0.007l-0.037 0.001zM828.77 149.163c20.802 0 37.665-16.863 37.665-37.665s-16.863-37.665-37.665-37.665h-291.958c7.157 10.58 11.426 23.624 11.426 37.665s-4.268 27.085-11.578 37.905l0.153-0.24zM36.877 111.511c0.022 20.785 16.866 37.629 37.65 37.652h405.874c20.773-0.034 37.599-16.881 37.599-37.658 0-20.798-16.86-37.658-37.658-37.658-0.021 0-0.042 0-0.062 0h-405.737c-20.785 0.022-37.629 16.866-37.652 37.65v0.002zM102.912 5.868c0.022 20.793 16.872 37.642 37.663 37.665h405.742c20.497-0.395 36.962-17.104 36.962-37.658s-16.465-37.263-36.925-37.658l-0.037-0.001h-405.74c-20.788 0.022-37.635 16.865-37.665 37.649v0.003zM602.86-31.783c7.158 10.578 11.427 23.62 11.427 37.658s-4.269 27.081-11.579 37.898l0.153-0.24h291.932c20.497-0.395 36.962-17.104 36.962-37.658s-16.465-37.263-36.925-37.658l-0.037-0.001zM983.303-26.742c-0.007-2.786-2.268-5.041-5.054-5.041 0 0 0 0 0 0h-26.913c7.162 10.533 11.435 23.533 11.435 37.531 0 0.043 0 0.085 0 0.128v-0.007c-0.037 37.523-30.442 67.933-67.96 67.978h-9.496c7.165 10.58 11.438 23.626 11.438 37.671 0 15.214-5.015 29.257-13.481 40.566l0.127-0.177c28.592 8.465 49.096 34.494 49.096 65.313 0 37.55-30.441 67.991-67.991 67.991-0.004 0-0.007 0-0.011 0h-21.858c-8.371 0-15.157-6.786-15.157-15.157s6.786-15.157 15.157-15.157v0h21.858c20.497-0.395 36.962-17.104 36.962-37.658s-16.465-37.263-36.925-37.658l-0.037-0.001h-291.945c7.153 10.579 11.419 23.621 11.419 37.658s-4.266 27.079-11.572 37.899l0.153-0.24h209.474c8.371 0 15.157 6.786 15.157 15.157s-6.786 15.157-15.157 15.157v0h-158.681c7.179 10.605 11.46 23.681 11.46 37.757 0 37.509-30.404 67.918-67.911 67.925h-121.174c47.416 23.417 86.5 57.324 115.365 98.866l0.649 0.987c1.499 2.31 2.39 5.134 2.39 8.167 0 8.367-6.783 15.15-15.15 15.15-4.977 0-9.393-2.4-12.155-6.105l-0.029-0.040c-49.208-70.974-130.251-116.867-222.012-116.867-148.737 0-269.312 120.575-269.312 269.312s120.575 269.312 269.312 269.312c148.737 0 269.312-120.575 269.312-269.312 0-36.813-7.386-71.901-20.758-103.863l0.66 1.777c-0.715-1.698-1.13-3.672-1.13-5.744 0-8.371 6.786-15.158 15.158-15.158 6.3 0 11.703 3.844 13.99 9.314l0.037 0.1c14.061 33.528 22.23 72.493 22.23 113.366 0 117.667-67.703 219.522-166.28 268.733l-1.739 0.786h532.021c2.78-0.015 5.029-2.272 5.029-5.054 0-0.023 0-0.046 0-0.069v0.003-951.296z" />
<glyph unicode="&#xe990;" d="M930.002 454.196h-33.831v343.421c0 8.367-6.783 15.15-15.15 15.15s-15.15-6.783-15.15-15.15v-343.421h-38.466v140.761c0 8.367-6.783 15.15-15.15 15.15s-15.15-6.783-15.15-15.15v-140.761h-38.466v294.072c0 8.367-6.783 15.15-15.15 15.15s-15.15-6.783-15.15-15.15v-294.072h-38.466v203.054c0 8.367-6.783 15.15-15.15 15.15s-15.15-6.783-15.15-15.15v-203.12h-33.831c-8.371 0-15.157-6.786-15.157-15.157s6.786-15.157 15.157-15.157v0h304.272c8.371 0 15.157 6.786 15.157 15.157s-6.786 15.157-15.157 15.157v0z" />
<glyph unicode="&#xe991;" d="M183.572 835.873c-18.409-13.791-34.147-29.825-47.197-47.925l-0.445-0.649c-1.756-2.442-2.809-5.493-2.809-8.789 0-8.37 6.786-15.156 15.156-15.156 5.074 0 9.565 2.493 12.316 6.321l0.031 0.045c11.633 16.177 25.202 30.010 40.589 41.554l0.49 0.352c134.183 100.129 323.991-12.183 299.822-178.544-13.826-91.876-92.217-161.508-186.871-161.508-104.306 0-188.862 84.557-188.862 188.862 0 21.249 3.509 41.679 9.98 60.74l-0.392-1.33c0.485 1.419 0.765 3.053 0.765 4.752 0 8.369-6.784 15.153-15.153 15.153-6.669 0-12.332-4.308-14.357-10.294l-0.031-0.107c-7.086-20.621-11.176-44.381-11.176-69.096 0-121.047 98.128-219.175 219.175-219.175 109.922 0 200.945 80.92 216.747 186.44l0.148 1.204c28.055 192.827-192.118 323.426-347.897 207.163z" />
<glyph unicode="&#xe992;" d="M246.666 570.289c-8.371 0-15.157-6.786-15.157-15.157s6.786-15.157 15.157-15.157v0h25.718v-19.351c0-8.371 6.786-15.157 15.157-15.157s15.157 6.786 15.157 15.157v0 19.364h20.716v-19.351c0-8.367 6.783-15.15 15.15-15.15s15.15 6.783 15.15 15.15v21.95c20.427 5.251 43.966 21.202 43.966 66.652 0 29.342-5.12 48.994-30.497 60.875 15.754 8.822 24.681 27.806 24.681 52.88 0 29.63-12.485 47.34-38.151 54.062v22.804c0 8.367-6.783 15.15-15.15 15.15s-15.15-6.783-15.15-15.15v0-19.574h-20.716v19.574c0 8.371-6.786 15.157-15.157 15.157s-15.157-6.786-15.157-15.157v0-19.574h-25.771c-8.371 0-15.157-6.786-15.157-15.157s6.786-15.157 15.157-15.157v0h7.733v-179.686zM285.591 751.682h37.402c25.744 0 37.73-10.345 37.73-32.558 0-25.088-10.988-35.787-36.759-35.787h-38.374zM285.591 656.66h41.603c26.847 0 39.385-12.813 39.385-40.317v-5.501c0-28.029-13.233-42.26-39.385-42.26h-41.603z" />
<glyph unicode="&#xe993;" glyph-name="pv-icons-e" d="M512 960c29.765 0 53.895-24.129 53.895-53.895v-916.211c0-29.765-24.129-53.895-53.895-53.895s-53.895 24.129-53.895 53.895v916.211c0 29.765 24.129 53.895 53.895 53.895z" />
<glyph unicode="&#xe994;" glyph-name="pv-icons-f" d="M873.61 810.016c-92.604 92.541-220.502 149.774-361.767 149.774-282.658 0-511.797-229.139-511.797-511.797 0-83.216 19.861-161.793 55.1-231.25l-1.342 2.916-52.72-231.842c-0.663-2.798-1.044-6.010-1.044-9.311 0-23.228 18.83-42.059 42.059-42.059 3.301 0 6.513 0.38 9.595 1.099l-0.284-0.056 231.842 52.72c66.541-33.898 145.119-53.758 228.335-53.758 282.658 0 511.797 229.139 511.797 511.797 0 141.265-57.233 269.162-149.776 361.77l0.003-0.003zM618.502 320.762h-320.206c-23.216 0-42.036 18.82-42.036 42.036s18.82 42.036 42.036 42.036h320.251c23.216 0 42.036-18.82 42.036-42.036s-18.82-42.036-42.036-42.036v0zM725.252 491.572h-426.957c-23.216 0-42.036 18.82-42.036 42.036s18.82 42.036 42.036 42.036h427.002c23.216 0 42.036-18.82 42.036-42.036s-18.82-42.036-42.036-42.036v0z" />
<glyph unicode="&#xe995;" glyph-name="pv-icons-g" d="M778.411 701.269c0-22.339-18.109-40.448-40.448-40.448v0h-286.72c-0.452-0.018-0.983-0.028-1.517-0.028-22.339 0-40.448 18.109-40.448 40.448s18.109 40.448 40.448 40.448c0.533 0 1.064-0.010 1.593-0.031l-0.076 0.002h286.834c22.27-0.065 40.302-18.117 40.334-40.388v-0.003zM778.411 539.534c0 22.339-18.109 40.448-40.448 40.448v0h-286.72c-0.452 0.018-0.983 0.028-1.517 0.028-22.339 0-40.448-18.109-40.448-40.448s18.109-40.448 40.448-40.448c0.533 0 1.064 0.010 1.593 0.031l-0.076-0.002h286.834c22.27 0.065 40.302 18.117 40.334 40.388v0.003zM451.243 418.304c-21.677-0.839-38.931-18.614-38.931-40.42s17.255-39.581 38.855-40.417l0.076-0.002h123.278c21.677 0.839 38.931 18.614 38.931 40.42s-17.255 39.581-38.855 40.417l-0.076 0.002zM861.582 450.674v347.591c-0.065 44.62-36.219 80.774-80.833 80.839h-372.002c-44.62-0.065-80.774-36.219-80.839-80.833v-549.78c0-44.646 36.193-80.839 80.839-80.839v0 0h371.94c44.66 0.065 80.84 36.284 80.84 80.953 0 0.1 0 0.2-0.001 0.3v-0.015c0.839 21.677 18.614 38.931 40.42 38.931s39.581-17.255 40.417-38.855l0.002-0.076c-0.124-82.131-61.36-149.921-140.663-160.339l-0.82-0.088v-1.252c0-0.034 0-0.074 0-0.114 0-89.418-72.488-161.906-161.906-161.906h-391.908c-89.285 0.097-161.638 72.45-161.735 161.726v549.84c0.129 89.26 72.47 161.581 161.726 161.678h0.009c0.194 89.191 72.478 161.435 161.666 161.564h371.952c89.285-0.097 161.638-72.45 161.735-161.726v-347.657c0.018-0.452 0.028-0.983 0.028-1.517 0-22.339-18.109-40.448-40.448-40.448s-40.448 18.109-40.448 40.448c0 0.533 0.010 1.064 0.031 1.593l-0.002-0.076zM294.457 134.201c-29.272 29.106-47.389 69.404-47.389 113.933 0 0.145 0 0.291 0.001 0.436v-0.023 469.049c-44.62-0.065-80.774-36.219-80.839-80.833v-549.837c0.065-44.62 36.219-80.774 80.833-80.839h391.914c44.6 0.065 80.742 36.187 80.839 80.773v0.009h-311.068c-0.156-0.001-0.341-0.001-0.526-0.001-44.473 0-84.726 18.071-113.815 47.271l-0.005 0.005z" />
<glyph unicode="&#xe996;" glyph-name="pv-icons-h" d="M898.194 795.429h-787.895c-60.883-0.083-110.216-49.416-110.299-110.291v-472.73c0.083-60.883 49.416-110.216 110.291-110.299h787.903c60.883 0.083 110.216 49.416 110.299 110.291v472.73c-0.083 60.883-49.416 110.216-110.291 110.299h-0.008zM110.299 732.379h787.895c26.107-0.021 47.266-21.179 47.287-47.285v-63.015h-882.432v63.049c0.042 26.079 21.171 47.209 47.246 47.25h0.004zM898.194 165.12h-787.895c-26.107 0.021-47.266 21.179-47.287 47.285v346.663h882.469v-346.661c-0.021-26.107-21.179-47.266-47.285-47.287h-0.002zM220.635 259.657h-31.525c-17.411 0-31.525 14.114-31.525 31.525v31.525c0 17.411 14.114 31.525 31.525 31.525v0h31.525c17.411 0 31.525-14.114 31.525-31.525v0-31.525c0-17.411-14.114-31.525-31.525-31.525v0z" />
<glyph unicode="&#xe997;" glyph-name="pv-icons-i" d="M991.36 320.384c-17.673 0-32-14.327-32-32v0-224h-895.36v383.904h351.744c17.673 0 32 14.327 32 32s-14.327 32-32 32v0h-351.744v128h351.744c17.673 0 32 14.327 32 32s-14.327 32-32 32v0h-351.744c-35.346 0-64-28.654-64-64v0-575.616c0-35.346 28.654-64 64-64v0h895.392c35.346 0 64 28.654 64 64v0 224c-0.163 17.549-14.427 31.712-31.999 31.712-0.012 0-0.023 0-0.035 0h0.002zM287.904 320.256h-128c-17.673 0-32-14.327-32-32s14.327-32 32-32v0h128c17.673 0 32 14.327 32 32s-14.327 32-32 32v0zM1003.968 797.504l-224 96c-3.727 1.606-8.067 2.54-12.624 2.54s-8.897-0.934-12.837-2.621l0.213 0.081-224-96c-11.31-5.1-19.040-16.276-19.040-29.258 0-0.041 0-0.083 0-0.124v0.006-128c0-176 65.056-278.784 240-379.52 4.59-2.695 10.109-4.287 16-4.287s11.41 1.592 16.151 4.369l-0.151-0.082c174.848 100.48 240 203.328 240 379.52v128c-0.073 13.171-8.091 24.451-19.502 29.297l-0.21 0.079zM959.392 640.128c0-147.68-48.864-228.96-192-314.688-143.008 85.888-192 167.2-192 314.688v106.88l192 82.24 192-82.24zM883.488 697.152c-5.43 4.318-12.386 6.929-19.952 6.929-10.069 0-19.059-4.623-24.962-11.862l-0.046-0.058-100.544-125.728-39.776 59.488c-5.892 7.938-15.236 13.026-25.768 13.026-17.673 0-32-14.327-32-32 0-6.074 1.693-11.754 4.632-16.592l-0.080 0.142 64-96c5.586-8.258 14.725-13.749 25.172-14.269l0.076-0.003h1.344c10.087 0.004 19.081 4.675 24.944 11.97l0.048 0.062 128 160c4.323 5.408 6.937 12.347 6.937 19.896 0 10.088-4.668 19.087-11.963 24.952l-0.062 0.048z" />
<glyph unicode="&#xe998;" d="M511.981 263.164c0.008 0 0.017 0 0.026 0 101.181 0 183.204 82.023 183.204 183.204s-82.023 183.204-183.204 183.204c-101.176 0-183.197-82.016-183.204-183.191v-0.001c0.007-101.171 82.010-183.188 183.176-183.217h0.003z" />
<glyph unicode="&#xe999;" d="M828.841 808.77c-81.087 81.097-193.113 131.256-316.854 131.256s-235.767-50.16-316.853-131.256l-0.001-0.001c-11.176-11.18-18.089-26.622-18.089-43.679 0-34.121 27.66-61.781 61.781-61.781 17.064 0 32.511 6.918 43.692 18.102v0c58.728 58.743 139.868 95.076 229.495 95.076s170.766-36.334 229.494-95.076l0.001-0.001c11.179-11.179 26.622-18.093 43.679-18.093 34.116 0 61.772 27.656 61.772 61.772 0 17.058-6.914 32.501-18.093 43.679v0z" />
<glyph unicode="&#xe99a;" d="M145.355 154.084v198.398c0 0.033 0 0.072 0 0.111 0 4.977 0.725 9.785 2.075 14.323l-0.091-0.355h-83.455c-24.238-0.087-43.856-19.745-43.878-43.991v-138.611c0.051-24.225 19.657-43.855 43.869-43.942h83.463c-1.259 4.183-1.984 8.99-1.984 13.967 0 0.035 0 0.071 0 0.106v-0.006z" />
<glyph unicode="&#xe99b;" d="M247.741 154.084v198.398c-0.045 28.243-22.95 51.12-51.199 51.12-23.233 0-42.851-15.474-49.111-36.678l-0.092-0.362c-1.259-4.183-1.984-8.99-1.984-13.967 0-0.040 0-0.080 0-0.119v0.006-198.398c0-0.034 0-0.073 0-0.113 0-4.976 0.725-9.784 2.075-14.322l-0.091 0.355c6.352-21.566 25.97-37.040 49.203-37.040 28.249 0 51.154 22.878 51.199 51.116v0.004z" />
<glyph unicode="&#xe99c;" d="M878.607 154.084v198.398c0 0.033 0 0.072 0 0.111 0 4.977-0.725 9.785-2.075 14.323l0.091-0.355c-6.352 21.566-25.97 37.040-49.203 37.040-28.249 0-51.154-22.878-51.199-51.116v-198.402c0.045-28.243 22.95-51.12 51.199-51.12 23.233 0 42.851 15.474 49.111 36.678l0.092 0.362c1.259 4.183 1.984 8.99 1.984 13.967 0 0.040 0 0.080 0 0.119v-0.006z" />
<glyph unicode="&#xe99d;" d="M1004.007 183.959v138.609c-0.080 24.236-19.706 43.862-43.934 43.942h-83.463c1.259-4.183 1.984-8.989 1.984-13.965 0-0.040 0-0.081 0-0.121v0.006-198.398c0-0.034 0-0.073 0-0.113 0-4.976-0.725-9.784-2.075-14.322l0.091 0.355h83.455c24.259 0.080 43.898 19.742 43.942 44.002v0.004z" />
<glyph unicode="&#xe99e;" d="M549.74-43.994c26.269 0 47.564 21.295 47.564 47.564s-21.295 47.564-47.564 47.564h-78.77c-26.269 0-47.564-21.295-47.564-47.564s21.295-47.564 47.564-47.564v0z" />
<glyph unicode="&#xe99f;" d="M715.217 446.342c-0.015 112.212-90.984 203.172-203.197 203.172-112.223 0-203.197-90.975-203.197-203.197 0-112.209 90.953-203.176 203.157-203.197h0.002c112.195 0.109 203.119 91.028 203.236 203.212v0.011zM348.808 446.342c0.015 90.121 73.075 163.172 163.198 163.172 90.132 0 163.198-73.066 163.198-163.198s-73.066-163.198-163.198-163.198c-0.009 0-0.018 0-0.027 0h0.001c-90.094 0.102-163.099 73.125-163.172 163.216v0.007z" />
<glyph unicode="&#xe9a0;" d="M980.084 383.29v108.619c0.001 0.402 0.002 0.879 0.002 1.355 0 128.833-52.413 245.425-137.079 329.614l-0.022 0.021c-62.889 63.076-143.72 108.231-234.188 127.161l-3.032 0.531c-1.204 0.258-2.588 0.405-4.006 0.405-11.043 0-19.996-8.952-19.996-19.996 0-9.625 6.801-17.662 15.859-19.567l0.13-0.023c85.5-17.803 159.413-59.101 216.908-116.775l0.011-0.011c7.508-7.575 12.148-18.004 12.148-29.516s-4.64-21.942-12.151-29.519l0.003 0.003c-7.577-7.531-18.019-12.185-29.548-12.185s-21.972 4.655-29.551 12.187l0.002-0.002c-62.394 62.252-148.514 100.746-243.626 100.746s-181.232-38.494-243.632-100.753l0.007 0.007c-7.602-7.825-18.224-12.681-29.98-12.681-23.074 0-41.779 18.705-41.779 41.779 0 11.747 4.848 22.361 12.652 29.952l0.010 0.009c57.534 57.685 131.479 98.977 214.237 116.275l2.772 0.485c9.197 1.923 16.006 9.965 16.006 19.597 0 11.045-8.954 19.999-19.999 19.999-1.414 0-2.793-0.147-4.124-0.426l0.13 0.023c-93.491-19.466-174.316-64.615-237.196-127.668l-0.010-0.011c-84.727-84.248-137.165-200.892-137.165-329.784 0-0.433 0.001-0.866 0.002-1.299v0.067-108.632c-25.675-8.69-43.835-32.548-43.878-60.653v-138.666c0 0 0 0 0 0 0-35.305 28.588-63.934 63.878-63.999h70.162c12.315-22.294 35.681-37.143 62.514-37.143 39.312 0 71.18 31.868 71.18 71.18 0 0.008 0 0.016 0 0.025v-0.001 198.398c0 0.007 0 0.015 0 0.023 0 39.312-31.868 71.18-71.18 71.18-26.834 0-50.199-14.848-62.329-36.777l-0.186-0.366h-50.163v105.432c-0.001 0.351-0.002 0.766-0.002 1.181 0 91.826 29.125 176.85 78.641 246.337l-0.88-1.301c11.445-32.207 41.66-54.854 77.164-54.854 22.587 0 43.033 9.165 57.822 23.98l0.001 0.001c55.153 55.032 131.281 89.062 215.357 89.062s160.205-34.030 215.363-89.067l-0.006 0.006c14.794-14.794 35.232-23.944 57.807-23.944 35.505 0 65.724 22.634 77.015 54.259l0.178 0.571c48.62-68.179 77.735-153.19 77.735-245 0-0.424-0.001-0.847-0.002-1.271v0.066-105.407h-50.15c-12.315 22.294-35.681 37.143-62.514 37.143-39.312 0-71.18-31.868-71.18-71.18 0-0.008 0-0.016 0-0.025v0.001-198.398c0-0.007 0-0.015 0-0.023 0-39.312 31.868-71.18 71.18-71.18 26.834 0 50.199 14.848 62.329 36.777l0.186 0.366h50.163v-63.218c0 0 0 0 0 0 0-18.344-14.841-33.221-33.172-33.279h-292.636c-8.839 27.759-34.374 47.523-64.532 47.564h-78.814c-36.916-0.524-66.64-30.573-66.64-67.564s29.724-67.040 66.591-67.563l0.049-0.001h78.809c30.163 0.041 55.698 19.805 64.405 47.085l0.132 0.479h292.617c40.41 0.066 73.148 32.825 73.177 73.238v66.498c25.707 8.683 43.89 32.569 43.916 60.707v138.664c-0.041 28.122-18.214 51.989-43.453 60.539l-0.451 0.133zM39.999 183.959v138.661c0 0 0 0 0 0 0 13.201 10.687 23.907 23.882 23.936h61.442v-186.494h-61.439c-13.197 0.029-23.885 10.734-23.885 23.936 0 0 0 0 0 0v0zM196.542 383.636c17.219-0.022 31.171-13.974 31.193-31.191v-198.4c0-17.228-13.966-31.193-31.193-31.193s-31.193 13.966-31.193 31.193v0 198.398c0.015 17.224 13.97 31.184 31.191 31.206h0.002zM549.74-23.988h-78.809c-15.223 0-27.564 12.341-27.564 27.564s12.341 27.564 27.564 27.564v0h78.809c15.223 0 27.564-12.341 27.564-27.564s-12.341-27.564-27.564-27.564v0zM827.42 122.942c-17.219 0.022-31.171 13.974-31.193 31.191v198.4c0 17.228 13.966 31.193 31.193 31.193s31.193-13.966 31.193-31.193v0-198.398c-0.022-17.219-13.974-31.171-31.191-31.193h-0.002zM984.013 184.010c-0.015-13.213-10.722-23.921-23.934-23.936h-61.53v186.442h61.439c13.213-0.015 23.921-10.722 23.936-23.934v-0.001z" />
<glyph unicode="&#xe9a1;" d="M531.974 360.43v85.375c0.004 0.151 0.006 0.328 0.006 0.506 0 11.049-8.957 20.006-20.006 20.006s-20.006-8.957-20.006-20.006c0-0.178 0.002-0.355 0.007-0.532l-0.001 0.026v-85.375c-0.004-0.151-0.006-0.328-0.006-0.506 0-11.049 8.957-20.006 20.006-20.006s20.006 8.957 20.006 20.006c0 0.178-0.002 0.355-0.007 0.532l0.001-0.026z" />
<glyph unicode="&#xe9a2;" d="M511.981 512.159c0.004 0 0.008 0 0.013 0 11.042 0 19.993 8.951 19.993 19.993 0 0.005 0 0.009 0 0.014v-0.001 0.115c-0.058 11.005-8.993 19.904-20.006 19.904-11.049 0-20.006-8.957-20.006-20.006s8.957-20.006 20.006-20.006v0z" />
<glyph unicode="&#xe9a3;" d="M511.968 920h0.115c11.053 0.033 20 9 20 20.057 0 11.077-8.98 20.057-20.057 20.057s-20.057-8.98-20.057-20.057c0-11.057 8.947-20.024 19.997-20.057h0.003z" />
<glyph unicode="&#xe9a4;" d="M1024.023 447.988c0-282.776-229.235-512.012-512.012-512.012s-512.012 229.235-512.012 512.012c0 282.776 229.235 512.012 512.012 512.012s512.012-229.235 512.012-512.012z" />
<glyph unicode="&#xe9a5;" d="M423.847 492.475h138.056v-73.151h-138.056v-154.179h87.079c2.232-0.082 4.853-0.129 7.485-0.129 27.717 0 54.225 5.174 78.611 14.609l-1.488-0.506c20.866 8.449 38.284 21.704 51.469 38.448l0.201 0.264c12.26 16.341 21.158 35.92 25.265 57.206l0.142 0.885c4.275 21.668 6.721 46.581 6.721 72.066s-2.446 50.398-7.116 74.518l0.395-2.453c-4.242 22.172-13.141 41.753-25.669 58.456l0.262-0.364c-13.393 17.001-30.809 30.254-50.842 38.414l-0.828 0.298c-22.898 8.929-49.406 14.103-77.123 14.103-2.632 0-5.254-0.047-7.863-0.139l0.378 0.011h-87.079v-138.403zM335.336 419.324h-47.42v73.128h47.42v211.554h209.567c1.668 0.043 3.632 0.067 5.602 0.067 34.374 0 67.016-7.416 96.413-20.735l-1.47 0.596c27.782-12.993 50.993-31.588 68.988-54.477l0.306-0.403c17.707-23.070 31.454-50.234 39.615-79.718l0.391-1.656c8.32-29.898 13.102-64.23 13.102-99.679s-4.782-69.781-13.736-102.387l0.634 2.708c-8.529-31.143-22.278-58.31-40.416-81.931l0.411 0.557c-18.292-23.301-41.506-41.898-68.148-54.398l-1.146-0.483c-27.902-12.724-60.517-20.141-94.864-20.141-1.997 0-3.989 0.025-5.975 0.075l0.294-0.006h-209.567z" />
<glyph unicode="&#xe9a6;" glyph-name="pv-icons-l" d="M527.514 264.124v3.994c-20.48 0.222-39.919 1.331-58.778 2.884-11.018-27.959-25.402-52.084-43.030-73.43l0.364 0.453c30.536-5.285 66.023-8.573 102.18-9.091l0.51-0.006zM437.692 411.034c-17.138 79.35-74.756 142.050-149.686 166.133l-1.576 0.438c-19.572 6.168-42.081 9.735-65.419 9.762h-0.014c-0.004 0-0.010 0-0.015 0-122.053 0-220.996-98.943-220.996-220.996s98.943-220.996 220.996-220.996c57.414 0 109.714 21.894 149.007 57.788l-0.171-0.154c44.489 40.367 72.312 98.408 72.312 162.948 0 0.182 0 0.363-0.001 0.544v-0.028c-0.042 15.792-1.655 31.182-4.692 46.054l0.255-1.493zM220.945 396.169c0.24 0.002 0.524 0.004 0.808 0.004 46.186 0 83.627-37.441 83.627-83.627 0-38.423-25.913-70.794-61.217-80.59l-0.588-0.139v-19.524c0-12.253-9.933-22.187-22.187-22.187s-22.187 9.933-22.187 22.187v0 19.302c-35.967 10.035-61.942 42.435-62.106 80.929v0.019c0 12.253 9.933 22.187 22.187 22.187s22.187-9.933 22.187-22.187v0c0.058-21.701 17.664-39.27 39.373-39.27 21.745 0 39.373 17.628 39.373 39.373s-17.628 39.373-39.373 39.373c-0.042 0-0.084 0-0.126 0h0.007c-0.090 0-0.196-0.001-0.302-0.001-46.186 0-83.627 37.441-83.627 83.627 0 38.723 26.319 71.299 62.045 80.815l0.584 0.132v9.54c0 12.253 9.933 22.187 22.187 22.187s22.187-9.933 22.187-22.187v-9.984c35.491-10.29 60.996-42.504 60.996-80.674 0-0.018 0-0.036 0-0.054v0.003c0-12.253-9.933-22.187-22.187-22.187s-22.187 9.933-22.187 22.187v0c0 0.066 0.001 0.144 0.001 0.222 0 21.802-17.674 39.475-39.475 39.475s-39.475-17.674-39.475-39.475c0-21.801 17.673-39.475 39.475-39.475v0zM526.848 312.713l-1.331 78.507c-13.756 0.222-27.307 0.666-40.141 1.553 0.666-8.875 1.109-17.527 1.109-26.163-0.048-18.391-1.91-36.317-5.415-53.648l0.295 1.748c14.592-1.331 29.952-1.997 45.483-1.997zM769.707 679.765c-13.647-7.276-29.604-13.84-46.245-18.819l-1.883-0.484c-54.958-14.77-118.056-23.254-183.135-23.254-62.634 0-123.432 7.858-181.462 22.643l5.071-1.095c-18.347 4.988-34.263 11.273-49.273 19.060l1.367-0.645 1.553-62.549c26.57-10.088 49.53-23.339 69.939-39.648l-0.512 0.395c0.666-0.222 1.109-0.222 1.707-0.444 43.411-10.596 93.249-16.674 144.506-16.674 2.297 0 4.592 0.012 6.883 0.037l-0.35-0.003c2.273-0.030 4.957-0.047 7.645-0.047 58.026 0 114.213 7.872 167.552 22.607l-4.411-1.040c48.128 14.643 58.778 29.935 58.778 32.819-0.076 0.524-0.12 1.128-0.12 1.743 0 2.756 0.876 5.308 2.365 7.392l-0.026-0.039zM708.489 767.812c-48.599 13.704-104.409 21.583-162.060 21.583-3.068 0-6.132-0.022-9.189-0.067l0.463 0.005c-2.723 0.045-5.936 0.070-9.155 0.070-56.72 0-111.599-7.883-163.601-22.613l4.222 1.022c-46.797-14.199-57.003-28.16-57.225-32.597 0 0 0.222 0 0.222-0.444 1.109-4.881 14.421-19.968 62.106-33.707 46.471-12.72 99.829-20.028 154.894-20.028 3.013 0 6.021 0.022 9.024 0.065l-0.454-0.005c2.485-0.036 5.419-0.056 8.357-0.056 57.688 0 113.556 7.794 166.608 22.387l-4.4-1.032c48.128 14.421 58.999 29.713 58.999 32.819s-10.718 17.971-58.812 32.597zM1024.324 154.112v66.56c-13.098-6.869-28.525-13.242-44.561-18.233l-2.014-0.54c-52.022-14.837-111.771-23.367-173.511-23.367-3.405 0-6.803 0.026-10.195 0.078l0.513-0.006c-1.84-0.018-4.015-0.028-6.192-0.028-56.921 0-112.214 6.967-165.073 20.095l4.695-0.987c-21.157 5.436-39.531 12.342-56.915 20.945l1.688-0.755 1.109-64.324v-0.444c0-3.328 9.762-18.193 56.559-32.597 47.501-13.435 102.053-21.159 158.409-21.159 3.494 0 6.981 0.030 10.461 0.089l-0.524-0.007c2.831-0.049 6.171-0.076 9.518-0.076 56.697 0 111.533 7.967 163.45 22.844l-4.178-1.024c46.797 14.643 57.003 29.935 57.003 33.041zM769.263 556.015c-13.519-7.080-29.398-13.565-45.923-18.565l-1.983-0.516c-52.271-14.835-112.301-23.365-174.324-23.365-3.353 0-6.7 0.025-10.040 0.075l0.505-0.006c-35.453 0.033-70.328 2.37-104.52 6.87l4.049-0.436c17.128-23.564 30.716-51.032 39.24-80.644l0.457-1.857c19.081-1.331 39.697-2.219 60.996-2.219h2.219c36.369 39.919 134.178 59.887 229.325 62.549v58.027zM976.162 324.454c-51.544-14.369-110.733-22.627-171.85-22.627-3.275 0-6.544 0.024-9.807 0.071l0.495-0.006c-2.694-0.040-5.875-0.063-9.061-0.063-59.308 0-116.777 7.876-171.417 22.639l4.588-1.056c-18.626 5.263-34.674 11.612-49.897 19.35l1.547-0.714 0.887-51.012 0.222-18.637c17.306-21.521 100.028-49.237 222.908-49.237 2.848-0.048 6.208-0.075 9.574-0.075 57.112 0 112.402 7.802 164.862 22.399l-4.315-1.025c47.906 14.643 58.334 29.713 58.334 32.819 0 2.441 1.331 5.12 1.331 7.322h0.222v58.778c-13.837-7.293-29.981-13.746-46.84-18.497l-1.783-0.429zM965.769 432.026c-48.227 13.435-103.608 21.158-160.792 21.158-3.514 0-7.021-0.029-10.52-0.087l0.527 0.007h-3.772c-2.539 0.038-5.535 0.060-8.536 0.060-53.154 0-104.703-6.871-153.808-19.772l4.204 0.939c-45.909-12.868-61.662-27.494-63.659-33.485-0.14-0.242-0.222-0.533-0.222-0.843 0-0.016 0-0.032 0.001-0.047v0.002l0.444-0.887c1.331-4.659 14.421-19.746 62.106-33.707 49.178-12.541 105.635-19.738 163.772-19.738 59.757 0 117.738 7.604 173.028 21.898l-4.786-1.050c49.237 14.643 60.331 29.935 60.553 33.263v0.222c-0.205 3.191-11.298 17.886-58.539 32.068z" />
<glyph unicode="&#xe9a7;" glyph-name="pv-icons-m" d="M1024 448c0-282.77-229.23-512-512-512s-512 229.23-512 512c0 282.77 229.23 512 512 512s512-229.23 512-512z" />
<glyph unicode="&#xe9a8;" horiz-adv-x="1013" d="M1012.776 448c0-282.77-226.718-512-506.388-512s-506.388 229.23-506.388 512c0 282.77 226.718 512 506.388 512s506.388-229.23 506.388-512z" />
<glyph unicode="&#xe9a9;" horiz-adv-x="1013" d="M1012.776 448c0-282.77-226.718-512-506.388-512s-506.388 229.23-506.388 512c0 282.77 226.718 512 506.388 512s506.388-229.23 506.388-512z" />
<glyph unicode="&#xe9aa;" horiz-adv-x="1013" d="M1012.776 448c0-282.77-226.718-512-506.388-512s-506.388 229.23-506.388 512c0 282.77 226.718 512 506.388 512s506.388-229.23 506.388-512z" />
<glyph unicode="&#xe9ab;" horiz-adv-x="1013" d="M506.319 955.543c0.274 0.001 0.598 0.001 0.922 0.001 70.319 0 137.206-14.691 197.76-41.172l-3.18 1.239c62.078-26.939 115.032-63.628 159.484-108.72l0.058-0.059c90.869-92.415 146.969-219.266 146.969-359.22 0-71.15-14.499-138.914-40.704-200.498l1.267 3.352c-26.535-62.665-62.83-116.203-107.57-161.359l0.038 0.039c-44.509-45.16-97.462-81.856-156.321-107.549l-3.222-1.253c-57.642-25.229-124.817-39.91-195.421-39.91s-137.779 14.681-198.639 41.157l3.218-1.247c-62.079 26.946-115.033 63.642-159.483 108.742l-0.059 0.060c-90.859 92.414-146.953 219.258-146.953 359.203 0 71.157 14.502 138.926 40.711 200.514l-1.267-3.351c26.528 62.663 62.815 116.202 107.547 161.36l-0.039-0.039c44.51 45.151 97.464 81.84 156.321 107.526l3.221 1.253c57.374 25.241 124.261 39.932 194.579 39.932 0.267 0 0.535 0 0.802-0.001h-0.041zM506.319-35.085c264.326 3.266 477.345 218.305 477.345 483.096s-213.019 479.83-477.037 483.093l-0.309 0.003c-264.786-2.672-478.407-217.943-478.407-483.108s213.62-480.436 478.153-483.106l0.254-0.002z" />
<glyph unicode="&#xe9ac;" horiz-adv-x="1013" d="M523.386 291.090l-250.353 149.427z" />
<glyph unicode="&#xe9ad;" horiz-adv-x="1013" d="M523.386 859.905v-295.943l250.33-111.758z" />
<glyph unicode="&#xe9ae;" horiz-adv-x="1013" d="M523.386 859.905l-250.353-407.702 250.353 111.758z" />
<glyph unicode="&#xe9af;" horiz-adv-x="1013" d="M523.386 237.325v-201.091l250.538 346.291z" />
<glyph unicode="&#xe9b0;" horiz-adv-x="1013" d="M523.386 36.257v201.114l-250.353 145.154z" />
<glyph unicode="&#xe9b1;" horiz-adv-x="1013" d="M523.386 294.416l250.33 145.223-250.33 111.689z" />
<glyph unicode="&#xe9b2;" horiz-adv-x="1013" d="M273.033 439.639l250.353-145.223v256.912z" />
<glyph unicode="&#xe9b3;" glyph-name="pv-icons-o" d="M1019.807 566.735c-1.626 12.49-10.762 22.464-22.666 25.315l-0.204 0.041-102.4 23.796c-8.259 49.715-29.526 93.43-60.157 128.816l0.278-0.328c-41.214 42.944-99.088 69.628-163.194 69.628-4.344 0-8.659-0.123-12.943-0.364l0.594 0.027c-4.103 0.326-8.883 0.511-13.707 0.511-56.927 0-107.814-25.862-141.552-66.477l-0.243-0.301c-25.252-38.979-40.263-86.631-40.263-137.789 0-15.302 1.343-30.29 3.918-44.854l-0.226 1.541c-86.26 25.502-223.915 80.116-250.685 153.454-4.346 11.481-15.25 19.496-28.025 19.496-12.202 0-22.697-7.312-27.342-17.793l-0.075-0.191c-17.674-39.403-27.969-85.404-27.969-133.809 0-50.090 11.024-97.605 30.778-140.251l-0.859 2.066c5.413-12.434 11.215-23.991 17.067-34.572l-140.922 43.983c-2.778 0.942-5.978 1.485-9.305 1.485-16.508 0-29.891-13.383-29.891-29.891 0-1.176 0.068-2.337 0.2-3.477l-0.013 0.139c9.856-64.709 33.16-122.556 67.018-172.689l-0.946 1.485c72.364-104.378 191.546-171.87 326.492-171.87 8.653 0 17.241 0.277 25.755 0.824l-1.161-0.060c2.37-0.042 5.166-0.066 7.968-0.066 96.093 0 185.598 28.205 260.689 76.787l-1.881-1.14c59.933 39.911 109.547 90.365 147.32 149.152l1.209 2.010c31.903 48.414 54.689 105.708 64.437 167.34l0.319 2.449 106.545 55.345c9.732 5.063 16.264 15.071 16.264 26.604 0 1.279-0.080 2.539-0.236 3.776l0.015-0.147zM856.015 526.994c-8.714-4.592-14.811-13.131-15.933-23.173l-0.012-0.135c-7.074-60.089-27.568-114.27-58.399-161.034l0.859 1.388c-74.794-120.627-206.474-199.765-356.637-199.765-2.969 0-5.931 0.031-8.885 0.093l0.442-0.007c-7.086-0.528-15.35-0.829-23.684-0.829-113.889 0-214.647 56.219-276.037 142.42l-0.702 1.038c-19.356 28.506-35.308 61.415-46.163 96.561l-0.697 2.621 176.469-55.15c2.669-0.865 5.74-1.364 8.927-1.364 16.508 0 29.891 13.383 29.891 29.891 0 8.194-3.297 15.618-8.637 21.018l0.003-0.003c-51.312 55.792-82.766 130.548-82.766 212.65 0 16.694 1.3 33.084 3.805 49.074l-0.229-1.774c42.857-41.269 94.138-74.131 150.972-95.721l3.067-1.023c40.44-17.39 89.213-33.686 139.506-46.124l6.78-1.419c1.971-0.463 4.234-0.728 6.559-0.728 16.508 0 29.891 13.383 29.891 29.891 0 2.792-0.383 5.494-1.099 8.058l0.050-0.21c-0.293 1.122-30.33 115.127 17.847 178.078 23.29 26.572 57.298 43.258 95.203 43.258 4.475 0 8.896-0.233 13.251-0.686l-0.544 0.046c103.278 0 161.694-52.614 178.664-160.914 0.293-1.853 0.536-3.706 0.78-5.559v-0.293c1.754-12.336 10.827-22.148 22.617-24.974l0.204-0.041 42.91-9.996z" />
<glyph unicode="&#xe9b4;" glyph-name="pv-icons-p" d="M872.802 753.546c-0.039 0-0.085 0-0.131 0-8.314 0-15.884 3.189-21.553 8.409l0.022-0.020c-89.524 82.918-209.771 133.784-341.898 133.784s-252.374-50.866-342.226-134.084l0.328 0.3c-5.578-4.768-12.875-7.669-20.85-7.669-17.771 0-32.177 14.406-32.177 32.177 0 9.024 3.715 17.18 9.698 23.023l0.006 0.006c100.917 93.325 236.394 150.566 385.241 150.566s284.324-57.242 385.619-150.912l-0.378 0.346c6.453-5.899 10.485-14.353 10.485-23.749 0-17.749-14.389-32.138-32.138-32.138-0.017 0-0.034 0-0.051 0h0.003zM927.193 543.429c-0.026 0-0.057 0-0.088 0-11.047 0-20.788 5.595-26.543 14.105l-0.072 0.113c-85.25 127.795-228.417 211.125-391.116 212.243l-0.17 0.001c-162.854-1.133-306.005-84.459-390.165-210.522l-1.082-1.722c-5.914-8.124-15.393-13.344-26.090-13.344-17.771 0-32.177 14.406-32.177 32.177 0 6.3 1.811 12.177 4.94 17.14l-0.078-0.133c96.944 145.064 259.643 239.586 444.487 240.679l0.166 0.001c185.048-1.067 347.785-95.613 443.504-238.77l1.227-1.949c3.425-5.028 5.468-11.235 5.468-17.92 0-17.727-14.371-32.098-32.098-32.098-0.025 0-0.051 0-0.076 0h0.004zM407.67-68.884c-0.005 0-0.011 0-0.017 0-8.928 0-17.005 3.645-22.823 9.528l-0.003 0.003c-7.050 7.089-171.796 175.262-171.796 337.172-0.017 1.205-0.027 2.628-0.027 4.053 0 164.543 132.074 298.239 295.993 300.859l0.246 0.003c164.164-2.624 296.237-136.32 296.237-300.862 0-1.37-0.009-2.738-0.027-4.103l0.002 0.207c0-17.76-14.397-32.158-32.158-32.158s-32.158 14.397-32.158 32.158v0c0.021 1.173 0.033 2.557 0.033 3.944 0 129.017-103.29 233.91-231.688 236.495l-0.242 0.004c-128.639-2.589-231.93-107.482-231.93-236.499 0-1.387 0.012-2.771 0.036-4.152l-0.003 0.208c0-135.759 151.631-290.343 153.167-291.919 5.769-5.808 9.335-13.811 9.335-22.646 0-17.749-14.389-32.138-32.138-32.138-0.014 0-0.028 0-0.042 0h0.002zM610.777-68.687c-77.351 0-256.63 147.141-273.999 311.138-0.788 6.796-1.237 14.67-1.237 22.649 0 52.046 19.124 99.625 50.728 136.095l-0.22-0.26c29.911 34.126 73.441 55.683 122.015 56.123l0.077 0.001h0.906c47.403-0.002 90.304-19.272 121.298-50.406l0.006-0.006c32.865-32.584 53.212-77.748 53.212-127.665 0-0.381-0.001-0.762-0.004-1.142v0.059-20.953c-0.063-1.255-0.098-2.725-0.098-4.204 0-49.593 40.203-89.797 89.797-89.797s89.797 40.203 89.797 89.797c0 1.479-0.036 2.949-0.106 4.41l0.008-0.206v7.326c0 200.192-145.014 366.75-330.201 379.116-7.058 0.516-15.291 0.809-23.593 0.809-91.897 0-175.385-36.008-237.123-94.684l0.147 0.139c-71.905-68.545-116.618-165.063-116.618-272.024 0-88.463 30.585-169.782 81.757-233.961l-0.584 0.759c4.16-5.368 6.669-12.198 6.669-19.613 0-17.771-14.406-32.177-32.177-32.177-9.948 0-18.841 4.514-24.743 11.606l-0.042 0.052c-59.347 74.32-95.231 169.644-95.231 273.35 0 125.472 52.528 238.676 136.793 318.82l0.185 0.175c72.951 69.23 171.783 111.808 280.559 111.808 9.943 0 19.802-0.356 29.567-1.055l-1.311 0.075c218.821-14.612 390.262-209.329 390.262-443.274v-7.326c0.038-1.271 0.059-2.766 0.059-4.266 0-85.092-68.981-154.073-154.073-154.073s-154.073 68.981-154.073 154.073c0 1.5 0.021 2.995 0.064 4.485l-0.005-0.219v21.031c0.002 0.246 0.003 0.538 0.003 0.83 0 32.059-13.006 61.079-34.030 82.074l-0.001 0.001c-19.394 19.558-46.266 31.675-75.967 31.705h-0.597c-29.897-0.212-56.629-13.585-74.721-34.607l-0.11-0.131c-21.261-24.754-34.205-57.189-34.205-92.646 0-5.713 0.336-11.347 0.989-16.884l-0.064 0.671c14.178-133.671 167.778-253.479 210.078-253.479 17.749 0 32.138-14.389 32.138-32.138s-14.389-32.138-32.138-32.138v0zM730.112-6.026c-115.082 0-255.567 140.603-255.567 304.758 0 17.76 14.397 32.158 32.158 32.158s32.158-14.397 32.158-32.158v0c0-127.252 106.969-240.443 191.252-240.443 17.76 0 32.158-14.397 32.158-32.158s-14.397-32.158-32.158-32.158v0z" />
<glyph unicode="&#xe9b5;" glyph-name="pv-icons-q" d="M784-63.957h-544c-132.475 0.146-239.83 107.486-240 239.941v239.888c-0.001 0.212-0.002 0.463-0.002 0.714 0 31.625 13.274 60.149 34.554 80.305l0.051 0.047c20.256 19.238 47.705 31.071 77.919 31.071 1.963 0 3.913-0.050 5.851-0.149l-0.272 0.011c23.039-1.306 43.958-9.422 61.037-22.347l-0.279 0.203s235.989-176.811 236.117-177.152c26.62-20.392 60.387-32.676 97.024-32.676s70.404 12.284 97.409 32.959l-0.385-0.283c0.512 0.213 235.52 176.64 235.989 176.853 18.415 13.759 41.629 22.031 66.775 22.031 61.754 0 111.857-49.884 112.211-111.554v-239.906c-0.17-132.471-107.525-239.812-239.986-239.957h-0.014zM112.341 448.043c-0.166 0.003-0.361 0.005-0.557 0.005-17.555 0-31.787-14.231-31.787-31.787 0-0.122 0.001-0.243 0.002-0.365v0.019-239.872c0.097-88.326 71.674-159.903 159.991-160h544.009c88.326 0.097 159.903 71.674 160 159.991v239.838c0.001 0.108 0.002 0.235 0.002 0.362 0 17.602-14.27 31.872-31.872 31.872-0.706 0-1.407-0.023-2.102-0.068l0.095 0.005c-6.491-0.419-12.364-2.76-17.139-6.453l0.072 0.053-235.477-176.469c-39.907-30.525-90.51-48.911-145.408-48.911s-105.501 18.386-145.989 49.337l0.581-0.426-235.776 176.427c-5.104 3.966-11.587 6.38-18.631 6.443h-0.014zM928 646.016v73.984c-0.121 132.508-107.495 239.897-239.986 240.043h-348.004c-132.505-0.146-239.878-107.534-240-240.031v-73.996c0.725-21.534 18.356-38.715 40-38.715s39.275 17.181 39.998 38.649l0.002 0.066v73.984c0.097 88.326 71.674 159.903 159.991 160h347.999c88.326-0.097 159.903-71.674 160-159.991v-73.993c0.725-21.534 18.356-38.715 40-38.715s39.275 17.181 39.998 38.649l0.002 0.066zM578.133 452.011c-11.764 0.012-22.841 2.948-32.545 8.118l0.375-0.182-30.165 15.701-30.165-15.701c-9.302-4.963-20.344-7.878-32.067-7.878-38.221 0-69.205 30.984-69.205 69.205 0 4.064 0.35 8.046 1.022 11.917l-0.059-0.413 5.675 32.853-24.064 23.211c-12.971 12.547-21.024 30.109-21.024 49.552 0 34.711 25.666 63.428 59.056 68.208l0.368 0.043 33.621 4.864 14.976 30.080c11.74 22.77 35.091 38.070 62.016 38.070s50.276-15.301 61.833-37.682l0.183-0.389 14.976-30.080 33.621-4.864c33.758-4.823 59.424-33.54 59.424-68.251 0-19.443-8.053-37.005-21.005-49.533l-0.019-0.018-24.107-23.339 5.675-32.853c0.576-3.361 0.905-7.232 0.905-11.18 0-38.239-30.88-69.266-69.064-69.503h-0.023zM438.741 630.784l12.075-11.691c12.967-12.526 21.019-30.069 21.019-49.493 0-4.146-0.367-8.206-1.070-12.15l0.061 0.416-2.944-17.067 15.787 8.235c9.29 4.918 20.308 7.805 32 7.805s22.71-2.887 32.379-7.987l-0.379 0.182 15.787-8.235-2.944 17.067c-0.642 3.528-1.008 7.588-1.008 11.734 0 19.424 8.052 36.967 20.999 49.474l0.020 0.019 12.075 11.691-17.067 2.475c-22.964 3.373-42 17.613-51.957 37.238l-0.181 0.394-7.936 15.915-7.936-15.915c-10.138-20.019-29.175-34.259-51.762-37.586l-0.377-0.046z" />
<glyph unicode="&#xe9b6;" glyph-name="pv-icons-r" d="M68.613 4.627c-37.905 37.905-37.905 99.361 0 137.266v0l749.472 749.472c37.905 37.905 99.361 37.905 137.266 0v0c37.905-37.905 37.905-99.361 0-137.266v0l-749.472-749.472c-37.905-37.905-99.361-37.905-137.266 0v0zM68.613 891.364c37.905 37.905 99.361 37.905 137.266 0v0l749.472-749.472c37.905-37.905 37.905-99.361 0-137.266v0c-37.905-37.905-99.361-37.905-137.266 0v0l-749.472 749.472c-37.905 37.905-37.905 99.361 0 137.266v0z" />
<glyph unicode="&#xe9b7;" d="M1024 448c0-282.77-229.23-512-512-512s-512 229.23-512 512c0 282.77 229.23 512 512 512s512-229.23 512-512z" />
<glyph unicode="&#xe9b8;" d="M818.954 372.634c-11.311 0-20.48-9.169-20.48-20.48v0-143.36h-573.030v245.699h225.116c11.311 0 20.48 9.169 20.48 20.48s-9.169 20.48-20.48 20.48v0h-225.116v81.92h225.116c11.311 0 20.48 9.169 20.48 20.48s-9.169 20.48-20.48 20.48v0h-225.116c-22.622 0-40.96-18.338-40.96-40.96v0-368.394c0-22.622 18.338-40.96 40.96-40.96v0h573.051c22.622 0 40.96 18.338 40.96 40.96v0 143.36c-0.104 11.231-9.233 20.296-20.479 20.296-0.007 0-0.015 0-0.022 0h0.001z" />
<glyph unicode="&#xe9b9;" d="M368.742 372.552h-81.92c-11.311 0-20.48-9.169-20.48-20.48s9.169-20.48 20.48-20.48v0h81.92c11.311 0 20.48 9.169 20.48 20.48s-9.169 20.48-20.48 20.48v0z" />
<glyph unicode="&#xe9ba;" d="M827.023 677.99l-143.36 61.44c-2.386 1.028-5.163 1.626-8.079 1.626s-5.694-0.598-8.216-1.678l0.136 0.052-143.36-61.44c-7.238-3.264-12.186-10.417-12.186-18.725 0-0.027 0-0.053 0-0.079v0.004-81.92c0-112.64 41.636-178.422 153.6-242.893 2.937-1.725 6.47-2.744 10.24-2.744s7.303 1.019 10.337 2.796l-0.097-0.052c111.903 64.307 153.6 130.13 153.6 242.893v81.92c-0.046 8.429-5.178 15.649-12.482 18.75l-0.134 0.051zM798.495 577.27c0-94.515-31.273-146.534-122.88-201.4-91.525 54.968-122.88 107.008-122.88 201.4v68.403l122.88 52.634 122.88-52.634z" />
</font>
</defs>
</svg>
